CommissionerLoud-Black.ufo
<glyph name="ampersand" format="2">
  <advance width="802"/>
  <unicode hex="0026"/>
  <outline>
    <contour>
      <point x="513" y="0" type="curve"/>
      <point x="816" y="0" type="line"/>
      <point x="737" y="82"/>
      <point x="658" y="164"/>
      <point x="579" y="246" type="curve"/>
      <point x="386" y="464" type="line" smooth="yes"/>
      <point x="354" y="500"/>
      <point x="338" y="522"/>
      <point x="338" y="552" type="curve" smooth="yes"/>
      <point x="338" y="577"/>
      <point x="358" y="594"/>
      <point x="380" y="598" type="curve"/>
      <point x="404" y="594"/>
      <point x="419" y="576"/>
      <point x="419" y="550" type="curve" smooth="yes"/>
      <point x="419" y="538"/>
      <point x="392" y="497"/>
      <point x="367" y="463" type="curve"/>
      <point x="467" y="366" type="line"/>
      <point x="521" y="429"/>
      <point x="592" y="505"/>
      <point x="592" y="561" type="curve" smooth="yes"/>
      <point x="592" y="668"/>
      <point x="503" y="729"/>
      <point x="369" y="729" type="curve" smooth="yes"/>
      <point x="236" y="729"/>
      <point x="128" y="669"/>
      <point x="128" y="544" type="curve" smooth="yes"/>
      <point x="128" y="480"/>
      <point x="158" y="425"/>
      <point x="206" y="370" type="curve" smooth="yes"/>
      <point x="411" y="136" type="line"/>
      <point x="445" y="91"/>
      <point x="479" y="45"/>
    </contour>
    <contour>
      <point x="250" y="-14" type="curve" smooth="yes"/>
      <point x="293" y="-14"/>
      <point x="380" y="18"/>
      <point x="458" y="59" type="curve"/>
      <point x="474" y="59" type="line"/>
      <point x="473" y="94" type="line"/>
      <point x="384" y="185" type="line"/>
      <point x="354" y="169"/>
      <point x="316" y="155"/>
      <point x="306" y="155" type="curve"/>
      <point x="259" y="158"/>
      <point x="235" y="186"/>
      <point x="235" y="223" type="curve" smooth="yes"/>
      <point x="235" y="249"/>
      <point x="247" y="278"/>
      <point x="278" y="301" type="curve"/>
      <point x="187" y="412" type="line"/>
      <point x="95" y="371"/>
      <point x="20" y="302"/>
      <point x="20" y="186" type="curve" smooth="yes"/>
      <point x="20" y="71"/>
      <point x="97" y="-14"/>
    </contour>
    <contour>
      <point x="612" y="165" type="line"/>
      <point x="671" y="219"/>
      <point x="729" y="273"/>
      <point x="788" y="328" type="curve"/>
      <point x="591" y="457" type="line"/>
      <point x="559" y="399"/>
      <point x="527" y="341"/>
      <point x="495" y="283" type="curve"/>
    </contour>
  </outline>
</glyph>
<glyph name="asterisk" format="2">
  <advance width="513"/>
  <unicode hex="002A"/>
  <outline>
    <contour>
      <point x="423" y="335" type="curve"/>
      <point x="496" y="461" type="line"/>
      <point x="423" y="491"/>
      <point x="349" y="519"/>
      <point x="276" y="549" type="curve"/>
      <point x="214" y="597"/>
      <point x="152" y="647"/>
      <point x="90" y="695" type="curve"/>
      <point x="17" y="568" type="line"/>
      <point x="90" y="538"/>
      <point x="163" y="510"/>
      <point x="237" y="480" type="curve"/>
      <point x="299" y="432"/>
      <point x="361" y="383"/>
    </contour>
    <contour>
      <point x="91" y="334" type="line"/>
      <point x="153" y="383"/>
      <point x="214" y="432"/>
      <point x="276" y="481" type="curve"/>
      <point x="349" y="510"/>
      <point x="422" y="540"/>
      <point x="495" y="569" type="curve"/>
      <point x="422" y="696" type="line"/>
      <point x="360" y="647"/>
      <point x="299" y="598"/>
      <point x="237" y="549" type="curve"/>
      <point x="164" y="520"/>
      <point x="90" y="491"/>
      <point x="17" y="462" type="curve"/>
    </contour>
    <contour>
      <point x="183" y="281" type="curve"/>
      <point x="330" y="281" type="line"/>
      <point x="319" y="359"/>
      <point x="307" y="437"/>
      <point x="296" y="515" type="curve"/>
      <point x="307" y="593"/>
      <point x="318" y="671"/>
      <point x="329" y="749" type="curve"/>
      <point x="183" y="749" type="line"/>
      <point x="194" y="671"/>
      <point x="206" y="593"/>
      <point x="217" y="515" type="curve"/>
      <point x="206" y="437"/>
      <point x="194" y="359"/>
    </contour>
  </outline>
</glyph>
<glyph name="hyphen" format="2">
  <advance width="430"/>
  <unicode hex="002D"/>
  <outline>
    <contour>
      <point x="40" y="201" type="line"/>
      <point x="103" y="204"/>
      <point x="167" y="207"/>
      <point x="215" y="209" type="curve"/>
      <point x="263" y="207"/>
      <point x="327" y="204"/>
      <point x="390" y="201" type="curve"/>
      <point x="390" y="407" type="line"/>
      <point x="327" y="404"/>
      <point x="263" y="401"/>
      <point x="215" y="399" type="curve"/>
      <point x="167" y="401"/>
      <point x="103" y="404"/>
      <point x="40" y="407" type="curve"/>
    </contour>
  </outline>
</glyph>
<glyph name="period" format="2">
  <advance width="295"/>
  <unicode hex="002E"/>
  <outline>
    <contour>
      <point x="147" y="-16" type="curve" smooth="yes"/>
      <point x="224" y="-16"/>
      <point x="270" y="27"/>
      <point x="270" y="113" type="curve" smooth="yes"/>
      <point x="270" y="179"/>
      <point x="224" y="219"/>
      <point x="148" y="219" type="curve" smooth="yes"/>
      <point x="71" y="219"/>
      <point x="25" y="179"/>
      <point x="25" y="113" type="curve" smooth="yes"/>
      <point x="25" y="27"/>
      <point x="71" y="-16"/>
    </contour>
  </outline>
</glyph>
<glyph name="one" format="2">
  <advance width="490"/>
  <unicode hex="0031"/>
  <outline>
    <contour>
      <point x="67" y="375" type="line"/>
      <point x="145" y="415"/>
      <point x="221" y="454"/>
      <point x="301" y="495" type="curve"/>
      <point x="310" y="696" type="line"/>
      <point x="208" y="656"/>
      <point x="108" y="617"/>
      <point x="6" y="577" type="curve"/>
    </contour>
    <contour>
      <point x="172" y="0" type="curve"/>
      <point x="438" y="0" type="line"/>
      <point x="432" y="70"/>
      <point x="427" y="129"/>
      <point x="420" y="213" type="curve"/>
      <point x="420" y="449" type="line"/>
      <point x="426" y="528"/>
      <point x="432" y="607"/>
      <point x="438" y="690" type="curve"/>
      <point x="310" y="696" type="line"/>
      <point x="180" y="597" type="line"/>
      <point x="183" y="531"/>
      <point x="187" y="466"/>
      <point x="190" y="400" type="curve"/>
      <point x="190" y="213" type="line"/>
      <point x="183" y="129"/>
      <point x="178" y="70"/>
    </contour>
  </outline>
</glyph>
<glyph name="eight" format="2">
  <advance width="631"/>
  <unicode hex="0038"/>
  <outline>
    <contour>
      <point x="316" y="-16" type="curve" smooth="yes"/>
      <point x="515" y="-16"/>
      <point x="603" y="71"/>
      <point x="603" y="195" type="curve" smooth="yes"/>
      <point x="603" y="300"/>
      <point x="539" y="349"/>
      <point x="469" y="364" type="curve"/>
      <point x="469" y="380" type="line"/>
      <point x="538" y="394"/>
      <point x="588" y="441"/>
      <point x="588" y="521" type="curve" smooth="yes"/>
      <point x="588" y="632"/>
      <point x="491" y="706"/>
      <point x="316" y="706" type="curve" smooth="yes"/>
      <point x="140" y="706"/>
      <point x="43" y="632"/>
      <point x="43" y="521" type="curve" smooth="yes"/>
      <point x="43" y="441"/>
      <point x="93" y="394"/>
      <point x="162" y="380" type="curve"/>
      <point x="162" y="364" type="line"/>
      <point x="93" y="349"/>
      <point x="28" y="301"/>
      <point x="28" y="195" type="curve" smooth="yes"/>
      <point x="28" y="71"/>
      <point x="116" y="-16"/>
    </contour>
    <contour>
      <point x="316" y="168" type="curve"/>
      <point x="277" y="173"/>
      <point x="255" y="191"/>
      <point x="255" y="221" type="curve" smooth="yes"/>
      <point x="255" y="253"/>
      <point x="279" y="268"/>
      <point x="315" y="274" type="curve"/>
      <point x="352" y="268"/>
      <point x="376" y="253"/>
      <point x="376" y="221" type="curve" smooth="yes"/>
      <point x="376" y="191"/>
      <point x="355" y="173"/>
    </contour>
    <contour>
      <point x="316" y="424" type="curve"/>
      <point x="287" y="431"/>
      <point x="265" y="446"/>
      <point x="265" y="478" type="curve" smooth="yes"/>
      <point x="265" y="514"/>
      <point x="289" y="527"/>
      <point x="316" y="533" type="curve"/>
      <point x="343" y="527"/>
      <point x="368" y="514"/>
      <point x="368" y="478" type="curve" smooth="yes"/>
      <point x="368" y="446"/>
      <point x="345" y="431"/>
    </contour>
  </outline>
</glyph>
<glyph name="less" format="2">
  <advance width="590"/>
  <unicode hex="003C"/>
  <outline>
    <contour>
      <point x="550" y="23" type="curve"/>
      <point x="550" y="242" type="line"/>
      <point x="503" y="254"/>
      <point x="456" y="266"/>
      <point x="409" y="278" type="curve"/>
      <point x="335" y="301" type="line"/>
      <point x="335" y="317" type="line"/>
      <point x="409" y="340" type="line"/>
      <point x="456" y="352"/>
      <point x="503" y="364"/>
      <point x="550" y="376" type="curve"/>
      <point x="550" y="595" type="line"/>
      <point x="473" y="564"/>
      <point x="404" y="536"/>
      <point x="342" y="511" type="curve"/>
      <point x="248" y="478" type="line"/>
      <point x="186" y="459"/>
      <point x="115" y="437"/>
      <point x="40" y="414" type="curve"/>
      <point x="40" y="204" type="line"/>
      <point x="115" y="181"/>
      <point x="186" y="159"/>
      <point x="248" y="140" type="curve"/>
      <point x="342" y="107" type="line"/>
      <point x="404" y="82"/>
      <point x="473" y="54"/>
    </contour>
  </outline>
</glyph>
<glyph name="equal" format="2">
  <advance width="590"/>
  <unicode hex="003D"/>
  <outline>
    <contour>
      <point x="50" y="76" type="line"/>
      <point x="125" y="79"/>
      <point x="201" y="82"/>
      <point x="258" y="84" type="curve"/>
      <point x="332" y="84" type="line"/>
      <point x="389" y="82"/>
      <point x="465" y="79"/>
      <point x="540" y="76" type="curve"/>
      <point x="540" y="282" type="line"/>
      <point x="465" y="279"/>
      <point x="389" y="276"/>
      <point x="332" y="274" type="curve"/>
      <point x="258" y="274" type="line"/>
      <point x="201" y="276"/>
      <point x="125" y="279"/>
      <point x="50" y="282" type="curve"/>
    </contour>
    <contour>
      <point x="50" y="336" type="line"/>
      <point x="125" y="339"/>
      <point x="201" y="342"/>
      <point x="258" y="344" type="curve"/>
      <point x="332" y="344" type="line"/>
      <point x="389" y="342"/>
      <point x="465" y="339"/>
      <point x="540" y="336" type="curve"/>
      <point x="540" y="542" type="line"/>
      <point x="465" y="539"/>
      <point x="389" y="536"/>
      <point x="332" y="534" type="curve"/>
      <point x="258" y="534" type="line"/>
      <point x="201" y="536"/>
      <point x="125" y="539"/>
      <point x="50" y="542" type="curve"/>
    </contour>
  </outline>
</glyph>
<glyph name="at" format="2">
  <advance width="902"/>
  <unicode hex="0040"/>
  <outline>
    <contour>
      <point x="480" y="-157" type="curve" smooth="yes"/>
      <point x="546" y="-157"/>
      <point x="670" y="-119"/>
      <point x="764" y="-95" type="curve"/>
      <point x="764" y="45" type="line"/>
      <point x="641" y="-2"/>
      <point x="515" y="-34"/>
      <point x="480" y="-37" type="curve"/>
      <point x="229" y="-32"/>
      <point x="115" y="119"/>
      <point x="164" y="338" type="curve" smooth="yes"/>
      <point x="196" y="482"/>
      <point x="291" y="592"/>
      <point x="475" y="597" type="curve"/>
      <point x="666" y="592"/>
      <point x="774" y="484"/>
      <point x="739" y="287" type="curve" smooth="yes"/>
      <point x="736" y="270"/>
      <point x="688" y="207"/>
      <point x="659" y="193" type="curve"/>
      <point x="626" y="197"/>
      <point x="618" y="231"/>
      <point x="628" y="277" type="curve"/>
      <point x="640" y="334" type="line"/>
      <point x="658" y="388"/>
      <point x="676" y="441"/>
      <point x="694" y="490" type="curve"/>
      <point x="524" y="482" type="line"/>
      <point x="506" y="436" type="line"/>
      <point x="493" y="436" type="line"/>
      <point x="459" y="473"/>
      <point x="420" y="495"/>
      <point x="396" y="495" type="curve" smooth="yes"/>
      <point x="304" y="495"/>
      <point x="243" y="409"/>
      <point x="224" y="314" type="curve" smooth="yes"/>
      <point x="198" y="183"/>
      <point x="256" y="67"/>
      <point x="363" y="67" type="curve" smooth="yes"/>
      <point x="383" y="67"/>
      <point x="424" y="92"/>
      <point x="472" y="125" type="curve"/>
      <point x="484" y="125" type="line"/>
      <point x="509" y="89"/>
      <point x="573" y="59"/>
      <point x="663" y="59" type="curve" smooth="yes"/>
      <point x="709" y="59"/>
      <point x="850" y="175"/>
      <point x="867" y="261" type="curve" smooth="yes"/>
      <point x="917" y="515"/>
      <point x="748" y="717"/>
      <point x="477" y="717" type="curve" smooth="yes"/>
      <point x="279" y="717"/>
      <point x="89" y="610"/>
      <point x="37" y="367" type="curve" smooth="yes"/>
      <point x="-24" y="83"/>
      <point x="144" y="-157"/>
    </contour>
    <contour>
      <point x="418" y="218" type="curve"/>
      <point x="397" y="220"/>
      <point x="386" y="252"/>
      <point x="392" y="282" type="curve" smooth="yes"/>
      <point x="399" y="316"/>
      <point x="418" y="338"/>
      <point x="443" y="341" type="curve"/>
      <point x="455" y="338"/>
      <point x="462" y="334"/>
      <point x="467" y="328" type="curve"/>
      <point x="448" y="239" type="line"/>
      <point x="439" y="226"/>
      <point x="431" y="223"/>
    </contour>
  </outline>
</glyph>
<glyph name="A" format="2">
  <advance width="753"/>
  <unicode hex="0041"/>
  <anchor x="377" y="0" name="bottom"/>
  <anchor x="753" y="0" name="ogonek"/>
  <anchor x="377" y="713" name="top"/>
  <outline>
    <contour>
      <point x="-4" y="0" type="curve"/>
      <point x="282" y="0" type="line"/>
      <point x="289" y="69"/>
      <point x="296" y="139"/>
      <point x="303" y="208" type="curve"/>
      <point x="367" y="510" type="line"/>
      <point x="383" y="510" type="line"/>
      <point x="446" y="204" type="line"/>
      <point x="453" y="139"/>
      <point x="461" y="65"/>
      <point x="468" y="0" type="curve"/>
      <point x="759" y="0" type="line"/>
      <point x="731" y="77"/>
      <point x="700" y="162"/>
      <point x="671" y="241" type="curve"/>
      <point x="600" y="486" type="line"/>
      <point x="583" y="571"/>
      <point x="570" y="638"/>
      <point x="555" y="713" type="curve"/>
      <point x="201" y="713" type="line"/>
      <point x="186" y="638"/>
      <point x="172" y="571"/>
      <point x="155" y="486" type="curve"/>
      <point x="84" y="241" type="line"/>
      <point x="56" y="164"/>
      <point x="24" y="77"/>
    </contour>
    <contour>
      <point x="229" y="116" type="line"/>
      <point x="552" y="116" type="line"/>
      <point x="529" y="296" type="line"/>
      <point x="257" y="296" type="line"/>
    </contour>
  </outline>
</glyph>
<glyph name="D" format="2">
  <advance width="735"/>
  <unicode hex="0044"/>
  <anchor x="355" y="0" name="bottom"/>
  <anchor x="368" y="357" name="center"/>
  <anchor x="355" y="713" name="top"/>
  <outline>
    <contour>
      <point x="32" y="0" type="curve"/>
      <point x="113" y="-2"/>
      <point x="210" y="-5"/>
      <point x="324" y="-9" type="curve"/>
      <point x="612" y="-9"/>
      <point x="711" y="156"/>
      <point x="711" y="358" type="curve" smooth="yes"/>
      <point x="711" y="587"/>
      <point x="585" y="720"/>
      <point x="371" y="720" type="curve"/>
      <point x="245" y="717"/>
      <point x="115" y="715"/>
      <point x="32" y="713" type="curve"/>
      <point x="38" y="636"/>
      <point x="43" y="572"/>
      <point x="51" y="474" type="curve"/>
      <point x="51" y="229" type="line"/>
      <point x="44" y="137"/>
      <point x="38" y="73"/>
    </contour>
    <contour>
      <point x="302" y="193" type="line"/>
      <point x="301" y="220"/>
      <point x="298" y="250"/>
      <point x="297" y="293" type="curve"/>
      <point x="297" y="412" type="line"/>
      <point x="299" y="459"/>
      <point x="301" y="490"/>
      <point x="302" y="520" type="curve"/>
      <point x="328" y="520" type="line"/>
      <point x="428" y="514"/>
      <point x="455" y="455"/>
      <point x="455" y="361" type="curve" smooth="yes"/>
      <point x="455" y="264"/>
      <point x="431" y="200"/>
      <point x="323" y="193" type="curve"/>
    </contour>
  </outline>
</glyph>
<glyph name="G" format="2">
  <advance width="722"/>
  <unicode hex="0047"/>
  <anchor x="393" y="0" name="bottom"/>
  <anchor x="393" y="713" name="top"/>
  <outline>
    <contour>
      <point x="414" y="-15" type="curve" smooth="yes"/>
      <point x="452" y="-15"/>
      <point x="625" y="1"/>
      <point x="690" y="13" type="curve"/>
      <point x="650" y="231" type="line"/>
      <point x="578" y="208"/>
      <point x="467" y="177"/>
      <point x="437" y="177" type="curve"/>
      <point x="331" y="181"/>
      <point x="278" y="260"/>
      <point x="278" y="354" type="curve" smooth="yes"/>
      <point x="278" y="473"/>
      <point x="351" y="521"/>
      <point x="398" y="524" type="curve"/>
      <point x="419" y="524"/>
      <point x="543" y="494"/>
      <point x="652" y="457" type="curve"/>
      <point x="669" y="680" type="line"/>
      <point x="575" y="706"/>
      <point x="443" y="729"/>
      <point x="400" y="729" type="curve" smooth="yes"/>
      <point x="162" y="729"/>
      <point x="24" y="576"/>
      <point x="24" y="355" type="curve" smooth="yes"/>
      <point x="24" y="135"/>
      <point x="171" y="-15"/>
    </contour>
    <contour>
      <point x="441" y="13" type="curve"/>
      <point x="690" y="13" type="line"/>
      <point x="686" y="89"/>
      <point x="682" y="147"/>
      <point x="679" y="207" type="curve"/>
      <point x="686" y="275"/>
      <point x="692" y="325"/>
      <point x="698" y="381" type="curve"/>
      <point x="431" y="381" type="line"/>
      <point x="437" y="325"/>
      <point x="443" y="275"/>
      <point x="450" y="207" type="curve"/>
      <point x="447" y="147"/>
      <point x="445" y="91"/>
    </contour>
  </outline>
</glyph>
<glyph name="J" format="2">
  <advance width="357"/>
  <unicode hex="004A"/>
  <anchor x="175" y="0" name="bottom"/>
  <anchor x="175" y="713" name="top"/>
  <outline>
    <contour>
      <point x="11" y="-152" type="curve"/>
      <point x="225" y="-152" type="line"/>
      <point x="256" y="-105"/>
      <point x="315" y="3"/>
      <point x="315" y="79" type="curve" smooth="yes"/>
      <point x="315" y="170"/>
      <point x="301" y="267"/>
      <point x="301" y="367" type="curve"/>
      <point x="301" y="474" type="line"/>
      <point x="309" y="572"/>
      <point x="314" y="636"/>
      <point x="320" y="713" type="curve"/>
      <point x="36" y="713" type="line"/>
      <point x="42" y="636"/>
      <point x="47" y="572"/>
      <point x="55" y="474" type="curve"/>
      <point x="55" y="367" type="line"/>
      <point x="51" y="81" type="line"/>
      <point x="37" y="-1"/>
      <point x="24" y="-77"/>
    </contour>
  </outline>
</glyph>
<glyph name="K" format="2">
  <advance width="734"/>
  <unicode hex="004B"/>
  <anchor x="376" y="0" name="bottom"/>
  <anchor x="376" y="713" name="top"/>
  <outline>
    <contour>
      <point x="416" y="0" type="curve"/>
      <point x="744" y="0" type="line"/>
      <point x="700" y="71"/>
      <point x="630" y="185"/>
      <point x="579" y="269" type="curve"/>
      <point x="477" y="456" type="line"/>
      <point x="482" y="348" type="line"/>
      <point x="574" y="490" type="line"/>
      <point x="627" y="565"/>
      <point x="678" y="637"/>
      <point x="733" y="713" type="curve"/>
      <point x="418" y="713" type="line"/>
      <point x="398" y="655"/>
      <point x="384" y="612"/>
      <point x="367" y="563" type="curve"/>
      <point x="319" y="467" type="line"/>
      <point x="280" y="467" type="line"/>
      <point x="280" y="278" type="line"/>
      <point x="323" y="278" type="line"/>
      <point x="372" y="156" type="line"/>
      <point x="386" y="107"/>
      <point x="400" y="58"/>
    </contour>
    <contour>
      <point x="32" y="0" type="curve"/>
      <point x="315" y="0" type="line"/>
      <point x="309" y="74"/>
      <point x="303" y="138"/>
      <point x="296" y="229" type="curve"/>
      <point x="296" y="474" type="line"/>
      <point x="304" y="572"/>
      <point x="309" y="636"/>
      <point x="315" y="713" type="curve"/>
      <point x="32" y="713" type="line"/>
      <point x="38" y="636"/>
      <point x="43" y="572"/>
      <point x="51" y="474" type="curve"/>
      <point x="51" y="229" type="line"/>
      <point x="44" y="137"/>
      <point x="38" y="73"/>
    </contour>
  </outline>
</glyph>
<glyph name="L" format="2">
  <advance width="579"/>
  <unicode hex="004C"/>
  <anchor x="298" y="0" name="bottom"/>
  <anchor x="455" y="360" name="center"/>
  <anchor x="257" y="713" name="top"/>
  <anchor x="326" y="502" name="topright"/>
  <outline>
    <contour>
      <point x="32" y="0" type="curve"/>
      <point x="316" y="0" type="line"/>
      <point x="316" y="40" type="line"/>
      <point x="310" y="114"/>
      <point x="304" y="178"/>
      <point x="297" y="269" type="curve"/>
      <point x="297" y="474" type="line"/>
      <point x="305" y="572"/>
      <point x="310" y="636"/>
      <point x="316" y="713" type="curve"/>
      <point x="32" y="713" type="line"/>
      <point x="38" y="636"/>
      <point x="43" y="572"/>
      <point x="51" y="474" type="curve"/>
      <point x="51" y="229" type="line"/>
      <point x="44" y="137"/>
      <point x="38" y="73"/>
    </contour>
    <contour>
      <point x="265" y="0" type="line"/>
      <point x="555" y="0" type="line"/>
      <point x="555" y="237" type="line"/>
      <point x="492" y="229"/>
      <point x="439" y="223"/>
      <point x="349" y="212" type="curve"/>
      <point x="265" y="212" type="line"/>
    </contour>
  </outline>
</glyph>
<glyph name="M" format="2">
  <advance width="971"/>
  <unicode hex="004D"/>
  <anchor x="485" y="0" name="bottom"/>
  <anchor x="485" y="713" name="top"/>
  <outline>
    <contour>
      <point x="15" y="0" type="curve"/>
      <point x="284" y="0" type="line"/>
      <point x="283" y="71"/>
      <point x="282" y="135"/>
      <point x="281" y="191" type="curve"/>
      <point x="296" y="312" type="line"/>
      <point x="312" y="312" type="line"/>
      <point x="354" y="183" type="line"/>
      <point x="367" y="121"/>
      <point x="380" y="57"/>
      <point x="392" y="0" type="curve"/>
      <point x="589" y="0" type="line"/>
      <point x="598" y="57"/>
      <point x="609" y="121"/>
      <point x="619" y="183" type="curve"/>
      <point x="650" y="312" type="line"/>
      <point x="666" y="312" type="line"/>
      <point x="681" y="191" type="line"/>
      <point x="680" y="135"/>
      <point x="680" y="70"/>
      <point x="679" y="0" type="curve"/>
      <point x="956" y="0" type="line"/>
      <point x="941" y="73"/>
      <point x="926" y="142"/>
      <point x="908" y="229" type="curve"/>
      <point x="876" y="472" type="line"/>
      <point x="870" y="558"/>
      <point x="865" y="635"/>
      <point x="860" y="713" type="curve"/>
      <point x="580" y="713" type="line"/>
      <point x="567" y="649"/>
      <point x="558" y="601"/>
      <point x="547" y="550" type="curve"/>
      <point x="497" y="397" type="line"/>
      <point x="482" y="397" type="line"/>
      <point x="427" y="550" type="line"/>
      <point x="415" y="601"/>
      <point x="404" y="650"/>
      <point x="390" y="713" type="curve"/>
      <point x="105" y="713" type="line"/>
      <point x="100" y="634"/>
      <point x="96" y="558"/>
      <point x="91" y="472" type="curve"/>
      <point x="61" y="229" type="line"/>
      <point x="44" y="144"/>
      <point x="29" y="71"/>
    </contour>
  </outline>
</glyph>
<glyph name="R" format="2">
  <advance width="721"/>
  <unicode hex="0052"/>
  <anchor x="361" y="0" name="bottom"/>
  <anchor x="336" y="713" name="top"/>
  <outline>
    <contour>
      <point x="418" y="0" type="curve"/>
      <point x="730" y="0" type="line"/>
      <point x="694" y="57"/>
      <point x="639" y="145"/>
      <point x="597" y="211" type="curve"/>
      <point x="517" y="357" type="line"/>
      <point x="416" y="282" type="line"/>
      <point x="581" y="282"/>
      <point x="658" y="362"/>
      <point x="658" y="493" type="curve" smooth="yes"/>
      <point x="658" y="666"/>
      <point x="547" y="720"/>
      <point x="360" y="720" type="curve"/>
      <point x="255" y="718"/>
      <point x="121" y="715"/>
      <point x="32" y="713" type="curve"/>
      <point x="215" y="529" type="line"/>
      <point x="353" y="529" type="line" smooth="yes"/>
      <point x="386" y="529"/>
      <point x="405" y="505"/>
      <point x="405" y="464" type="curve" smooth="yes"/>
      <point x="405" y="409"/>
      <point x="378" y="398"/>
      <point x="348" y="398" type="curve" smooth="yes"/>
      <point x="247" y="398" type="line"/>
      <point x="247" y="251" type="line"/>
      <point x="415" y="251" type="line"/>
      <point x="271" y="341" type="line"/>
      <point x="369" y="141" type="line"/>
      <point x="383" y="100"/>
      <point x="399" y="54"/>
    </contour>
    <contour>
      <point x="32" y="0" type="curve"/>
      <point x="311" y="0" type="line"/>
      <point x="305" y="74"/>
      <point x="299" y="138"/>
      <point x="292" y="229" type="curve"/>
      <point x="292" y="434" type="line"/>
      <point x="299" y="529"/>
      <point x="305" y="596"/>
      <point x="311" y="673" type="curve"/>
      <point x="32" y="713" type="line"/>
      <point x="38" y="636"/>
      <point x="43" y="572"/>
      <point x="51" y="474" type="curve"/>
      <point x="51" y="229" type="line"/>
      <point x="44" y="137"/>
      <point x="38" y="73"/>
    </contour>
  </outline>
</glyph>
<glyph name="W" format="2">
  <advance width="1076"/>
  <unicode hex="0057"/>
  <anchor x="532" y="0" name="bottom"/>
  <anchor x="532" y="713" name="top"/>
  <outline>
    <contour>
      <point x="171" y="0" type="curve"/>
      <point x="478" y="0" type="line"/>
      <point x="482" y="60"/>
      <point x="487" y="130"/>
      <point x="491" y="188" type="curve"/>
      <point x="517" y="358" type="line"/>
      <point x="533" y="358" type="line"/>
      <point x="561" y="189" type="line"/>
      <point x="565" y="131"/>
      <point x="571" y="60"/>
      <point x="575" y="0" type="curve"/>
      <point x="900" y="0" type="line"/>
      <point x="912" y="69"/>
      <point x="927" y="154"/>
      <point x="940" y="225" type="curve"/>
      <point x="996" y="450" type="line"/>
      <point x="1021" y="525"/>
      <point x="1056" y="627"/>
      <point x="1086" y="713" type="curve"/>
      <point x="770" y="713" type="line"/>
      <point x="766" y="643"/>
      <point x="762" y="559"/>
      <point x="759" y="492" type="curve"/>
      <point x="738" y="292" type="line"/>
      <point x="722" y="292" type="line"/>
      <point x="694" y="491" type="line"/>
      <point x="690" y="559"/>
      <point x="684" y="643"/>
      <point x="680" y="713" type="curve"/>
      <point x="395" y="713" type="line"/>
      <point x="390" y="642"/>
      <point x="385" y="559"/>
      <point x="381" y="492" type="curve"/>
      <point x="355" y="292" type="line"/>
      <point x="339" y="292" type="line"/>
      <point x="318" y="491" type="line"/>
      <point x="315" y="559"/>
      <point x="310" y="644"/>
      <point x="307" y="713" type="curve"/>
      <point x="-10" y="713" type="line"/>
      <point x="20" y="625"/>
      <point x="53" y="526"/>
      <point x="78" y="450" type="curve"/>
      <point x="132" y="225" type="line"/>
      <point x="144" y="157"/>
      <point x="159" y="72"/>
    </contour>
  </outline>
</glyph>
<glyph name="X" format="2">
  <advance width="758"/>
  <unicode hex="0058"/>
  <outline>
    <contour>
      <point x="0" y="0" type="curve"/>
      <point x="311" y="0" type="line"/>
      <point x="318" y="41"/>
      <point x="325" y="82"/>
      <point x="331" y="118" type="curve"/>
      <point x="360" y="207" type="line"/>
      <point x="376" y="207" type="line"/>
      <point x="407" y="118" type="line"/>
      <point x="415" y="81"/>
      <point x="425" y="40"/>
      <point x="434" y="0" type="curve"/>
      <point x="761" y="0" type="line"/>
      <point x="713" y="76"/>
      <point x="671" y="142"/>
      <point x="622" y="220" type="curve"/>
      <point x="541" y="377" type="line"/>
      <point x="541" y="317" type="line"/>
      <point x="621" y="494" type="line"/>
      <point x="655" y="553"/>
      <point x="698" y="627"/>
      <point x="748" y="713" type="curve"/>
      <point x="437" y="713" type="line"/>
      <point x="427" y="664"/>
      <point x="419" y="619"/>
      <point x="411" y="580" type="curve"/>
      <point x="386" y="502" type="line"/>
      <point x="370" y="502" type="line"/>
      <point x="343" y="580" type="line"/>
      <point x="334" y="619"/>
      <point x="324" y="666"/>
      <point x="313" y="713" type="curve"/>
      <point x="-3" y="713" type="line"/>
      <point x="46" y="630"/>
      <point x="86" y="562"/>
      <point x="126" y="494" type="curve"/>
      <point x="198" y="345" type="line"/>
      <point x="198" y="397" type="line"/>
      <point x="117" y="214" type="line"/>
      <point x="75" y="137"/>
      <point x="40" y="73"/>
    </contour>
  </outline>
</glyph>
<glyph name="Z" format="2">
  <advance width="704"/>
  <unicode hex="005A"/>
  <anchor x="352" y="0" name="bottom"/>
  <anchor x="352" y="357" name="center"/>
  <anchor x="352" y="713" name="top"/>
  <outline>
    <contour>
      <point x="30" y="0" type="line"/>
      <point x="674" y="0" type="line"/>
      <point x="674" y="227" type="line"/>
      <point x="613" y="220"/>
      <point x="519" y="209"/>
      <point x="452" y="201" type="curve"/>
      <point x="314" y="201" type="line"/>
      <point x="326" y="131" type="line"/>
      <point x="535" y="388" type="line"/>
      <point x="583" y="440"/>
      <point x="627" y="488"/>
      <point x="667" y="532" type="curve"/>
      <point x="667" y="713" type="line"/>
      <point x="43" y="713" type="line"/>
      <point x="43" y="482" type="line"/>
      <point x="121" y="493"/>
      <point x="191" y="503"/>
      <point x="254" y="512" type="curve"/>
      <point x="407" y="512" type="line"/>
      <point x="390" y="582" type="line"/>
      <point x="183" y="319" type="line"/>
      <point x="131" y="262"/>
      <point x="65" y="190"/>
      <point x="30" y="152" type="curve"/>
    </contour>
  </outline>
</glyph>
<glyph name="backslash" format="2">
  <advance width="485"/>
  <unicode hex="005C"/>
  <outline>
    <contour>
      <point x="245" y="0" type="curve"/>
      <point x="489" y="0" type="line"/>
      <point x="457" y="77"/>
      <point x="431" y="139"/>
      <point x="393" y="228" type="curve"/>
      <point x="306" y="476" type="line"/>
      <point x="279" y="571"/>
      <point x="261" y="636"/>
      <point x="239" y="713" type="curve"/>
      <point x="-4" y="713" type="line"/>
      <point x="30" y="632"/>
      <point x="56" y="569"/>
      <point x="95" y="474" type="curve"/>
      <point x="181" y="228" type="line"/>
      <point x="207" y="136"/>
      <point x="224" y="74"/>
    </contour>
  </outline>
</glyph>
<glyph name="d" format="2">
  <advance width="594"/>
  <unicode hex="0064"/>
  <anchor x="322" y="0" name="bottom"/>
  <anchor x="296" y="251" name="center"/>
  <anchor x="322" y="733" name="top"/>
  <anchor x="577" y="502" name="topright"/>
  <outline>
    <contour>
      <point x="208" y="-16" type="curve" smooth="yes"/>
      <point x="243" y="-16"/>
      <point x="283" y="1"/>
      <point x="344" y="52" type="curve"/>
      <point x="357" y="52" type="line"/>
      <point x="372" y="0" type="line"/>
      <point x="576" y="0" type="line"/>
      <point x="570" y="70"/>
      <point x="565" y="129"/>
      <point x="558" y="213" type="curve"/>
      <point x="558" y="493" type="line"/>
      <point x="567" y="589"/>
      <point x="575" y="675"/>
      <point x="582" y="752" type="curve"/>
      <point x="301" y="732" type="line"/>
      <point x="314" y="649"/>
      <point x="326" y="572"/>
      <point x="336" y="493" type="curve"/>
      <point x="336" y="458" type="line"/>
      <point x="320" y="458" type="line"/>
      <point x="280" y="494"/>
      <point x="233" y="518"/>
      <point x="209" y="518" type="curve" smooth="yes"/>
      <point x="81" y="518"/>
      <point x="20" y="400"/>
      <point x="20" y="251" type="curve" smooth="yes"/>
      <point x="20" y="112"/>
      <point x="77" y="-16"/>
    </contour>
    <contour>
      <point x="299" y="169" type="curve"/>
      <point x="268" y="172"/>
      <point x="247" y="209"/>
      <point x="247" y="249" type="curve" smooth="yes"/>
      <point x="247" y="292"/>
      <point x="269" y="327"/>
      <point x="299" y="330" type="curve"/>
      <point x="312" y="327"/>
      <point x="327" y="320"/>
      <point x="336" y="312" type="curve"/>
      <point x="336" y="197" type="line"/>
      <point x="327" y="182"/>
      <point x="311" y="172"/>
    </contour>
  </outline>
</glyph>
<glyph name="g" format="2">
  <advance width="562"/>
  <unicode hex="0067"/>
  <anchor x="282" y="-192" name="bottom"/>
  <anchor x="282" y="502" name="top"/>
  <outline>
    <contour>
      <point x="234" y="-206" type="curve" smooth="yes"/>
      <point x="379" y="-206"/>
      <point x="546" y="-158"/>
      <point x="546" y="2" type="curve" smooth="yes"/>
      <point x="546" y="120"/>
      <point x="454" y="146"/>
      <point x="339" y="146" type="curve" smooth="yes"/>
      <point x="321" y="146" type="line" smooth="yes"/>
      <point x="282" y="146"/>
      <point x="264" y="149"/>
      <point x="264" y="164" type="curve" smooth="yes"/>
      <point x="264" y="182"/>
      <point x="282" y="187"/>
      <point x="323" y="195" type="curve" smooth="yes"/>
      <point x="404" y="211"/>
      <point x="484" y="252"/>
      <point x="484" y="340" type="curve" smooth="yes"/>
      <point x="484" y="388"/>
      <point x="469" y="426"/>
      <point x="443" y="454" type="curve"/>
      <point x="387" y="374" type="line"/>
      <point x="440" y="362"/>
      <point x="488" y="350"/>
      <point x="546" y="335" type="curve"/>
      <point x="546" y="506" type="line"/>
      <point x="427" y="506" type="line" smooth="yes"/>
      <point x="346" y="506"/>
      <point x="318" y="518"/>
      <point x="253" y="518" type="curve" smooth="yes"/>
      <point x="80" y="518"/>
      <point x="18" y="444"/>
      <point x="18" y="328" type="curve" smooth="yes"/>
      <point x="18" y="287"/>
      <point x="61" y="241"/>
      <point x="130" y="193" type="curve"/>
      <point x="130" y="180" type="line"/>
      <point x="83" y="164"/>
      <point x="63" y="128"/>
      <point x="63" y="95" type="curve" smooth="yes"/>
      <point x="63" y="53"/>
      <point x="96" y="24"/>
      <point x="129" y="18" type="curve"/>
      <point x="129" y="5" type="line"/>
      <point x="62" y="-31"/>
      <point x="31" y="-64"/>
      <point x="31" y="-93" type="curve" smooth="yes"/>
      <point x="31" y="-155"/>
      <point x="80" y="-206"/>
    </contour>
    <contour>
      <point x="277" y="-74" type="curve"/>
      <point x="233" y="-71"/>
      <point x="206" y="-54"/>
      <point x="206" y="-42" type="curve" smooth="yes"/>
      <point x="206" y="-32"/>
      <point x="241" y="-19"/>
      <point x="259" y="-14" type="curve"/>
      <point x="266" y="-14" type="line" smooth="yes"/>
      <point x="315" y="-14"/>
      <point x="340" y="-26"/>
      <point x="340" y="-40" type="curve" smooth="yes"/>
      <point x="340" y="-55"/>
      <point x="306" y="-69"/>
    </contour>
    <contour>
      <point x="249" y="278" type="curve"/>
      <point x="231" y="291"/>
      <point x="219" y="306"/>
      <point x="219" y="314" type="curve" smooth="yes"/>
      <point x="219" y="330"/>
      <point x="232" y="343"/>
      <point x="251" y="346" type="curve"/>
      <point x="282" y="344"/>
      <point x="304" y="332"/>
      <point x="304" y="315" type="curve" smooth="yes"/>
      <point x="304" y="295"/>
      <point x="269" y="281"/>
    </contour>
  </outline>
</glyph>
<glyph name="h" format="2">
  <advance width="598"/>
  <unicode hex="0068"/>
  <guideline x="152" y="743" angle="4.4708"/>
  <anchor x="302" y="0" name="bottom"/>
  <anchor x="302" y="409" name="center"/>
  <anchor x="273" y="733" name="top"/>
  <outline>
    <contour>
      <point x="22" y="0" type="curve"/>
      <point x="280" y="0" type="line"/>
      <point x="274" y="69"/>
      <point x="268" y="129"/>
      <point x="262" y="200" type="curve"/>
      <point x="262" y="291" type="line"/>
      <point x="274" y="303"/>
      <point x="300" y="318"/>
      <point x="305" y="318" type="curve" smooth="yes"/>
      <point x="329" y="318"/>
      <point x="337" y="293"/>
      <point x="337" y="238" type="curve"/>
      <point x="337" y="200" type="line"/>
      <point x="332" y="129"/>
      <point x="327" y="69"/>
      <point x="322" y="0" type="curve"/>
      <point x="578" y="0" type="line"/>
      <point x="572" y="69"/>
      <point x="566" y="129"/>
      <point x="559" y="213" type="curve"/>
      <point x="559" y="252"/>
      <point x="564" y="297"/>
      <point x="564" y="341" type="curve" smooth="yes"/>
      <point x="564" y="461"/>
      <point x="503" y="518"/>
      <point x="407" y="518" type="curve" smooth="yes"/>
      <point x="377" y="518"/>
      <point x="327" y="489"/>
      <point x="279" y="447" type="curve"/>
      <point x="262" y="447" type="line"/>
      <point x="262" y="493" type="line"/>
      <point x="271" y="589"/>
      <point x="279" y="675"/>
      <point x="286" y="752" type="curve"/>
      <point x="5" y="732" type="line"/>
      <point x="18" y="649"/>
      <point x="30" y="572"/>
      <point x="40" y="493" type="curve"/>
      <point x="40" y="213" type="line"/>
      <point x="33" y="129"/>
      <point x="28" y="70"/>
    </contour>
  </outline>
</glyph>
<glyph name="m" format="2">
  <advance width="891"/>
  <unicode hex="006D"/>
  <anchor x="448" y="0" name="bottom"/>
  <anchor x="448" y="502" name="top"/>
  <outline>
    <contour>
      <point x="26" y="0" type="curve"/>
      <point x="284" y="0" type="line"/>
      <point x="278" y="69"/>
      <point x="272" y="129"/>
      <point x="266" y="200" type="curve"/>
      <point x="266" y="291" type="line"/>
      <point x="278" y="303"/>
      <point x="302" y="318"/>
      <point x="308" y="318" type="curve" smooth="yes"/>
      <point x="329" y="318"/>
      <point x="337" y="293"/>
      <point x="337" y="238" type="curve"/>
      <point x="337" y="200" type="line"/>
      <point x="332" y="129"/>
      <point x="327" y="69"/>
      <point x="322" y="0" type="curve"/>
      <point x="578" y="0" type="line"/>
      <point x="572" y="69"/>
      <point x="566" y="129"/>
      <point x="559" y="213" type="curve"/>
      <point x="559" y="252"/>
      <point x="564" y="297"/>
      <point x="564" y="341" type="curve" smooth="yes"/>
      <point x="564" y="367"/>
      <point x="561" y="391"/>
      <point x="556" y="411" type="curve"/>
      <point x="538" y="411" type="line"/>
      <point x="519" y="484"/>
      <point x="472" y="518"/>
      <point x="409" y="518" type="curve" smooth="yes"/>
      <point x="375" y="518"/>
      <point x="314" y="486"/>
      <point x="255" y="441" type="curve"/>
      <point x="238" y="441" type="line"/>
      <point x="228" y="512" type="line"/>
      <point x="15" y="502" type="line"/>
      <point x="26" y="419"/>
      <point x="35" y="342"/>
      <point x="44" y="263" type="curve"/>
      <point x="44" y="213" type="line"/>
      <point x="37" y="129"/>
      <point x="32" y="70"/>
    </contour>
    <contour>
      <point x="615" y="0" type="curve"/>
      <point x="871" y="0" type="line"/>
      <point x="865" y="69"/>
      <point x="859" y="129"/>
      <point x="852" y="213" type="curve"/>
      <point x="852" y="252"/>
      <point x="857" y="297"/>
      <point x="857" y="341" type="curve" smooth="yes"/>
      <point x="857" y="461"/>
      <point x="796" y="518"/>
      <point x="702" y="518" type="curve" smooth="yes"/>
      <point x="667" y="518"/>
      <point x="604" y="485"/>
      <point x="544" y="438" type="curve"/>
      <point x="525" y="438" type="line"/>
      <point x="558" y="291" type="line"/>
      <point x="570" y="303"/>
      <point x="595" y="318"/>
      <point x="601" y="318" type="curve" smooth="yes"/>
      <point x="622" y="318"/>
      <point x="630" y="293"/>
      <point x="630" y="238" type="curve"/>
      <point x="630" y="200" type="line"/>
      <point x="625" y="129"/>
      <point x="620" y="69"/>
    </contour>
  </outline>
</glyph>
<glyph name="x" format="2">
  <advance width="613"/>
  <unicode hex="0078"/>
  <outline>
    <contour>
      <point x="0" y="0" type="curve"/>
      <point x="265" y="0" type="line"/>
      <point x="269" y="33"/>
      <point x="272" y="55"/>
      <point x="276" y="87" type="curve"/>
      <point x="290" y="147" type="line"/>
      <point x="303" y="147" type="line"/>
      <point x="320" y="83" type="line"/>
      <point x="325" y="54"/>
      <point x="329" y="30"/>
      <point x="334" y="0" type="curve"/>
      <point x="618" y="0" type="line"/>
      <point x="573" y="68"/>
      <point x="545" y="111"/>
      <point x="512" y="161" type="curve"/>
      <point x="441" y="284" type="line"/>
      <point x="453" y="241" type="line"/>
      <point x="517" y="351" type="line"/>
      <point x="549" y="403"/>
      <point x="570" y="435"/>
      <point x="612" y="502" type="curve"/>
      <point x="346" y="502" type="line"/>
      <point x="341" y="468"/>
      <point x="337" y="444"/>
      <point x="331" y="411" type="curve"/>
      <point x="315" y="353" type="line"/>
      <point x="300" y="353" type="line"/>
      <point x="282" y="413" type="line"/>
      <point x="276" y="444"/>
      <point x="270" y="474"/>
      <point x="263" y="508" type="curve"/>
      <point x="-5" y="502" type="line"/>
      <point x="34" y="439"/>
      <point x="58" y="400"/>
      <point x="89" y="350" type="curve"/>
      <point x="148" y="241" type="line"/>
      <point x="148" y="284" type="line"/>
      <point x="91" y="164" type="line"/>
      <point x="61" y="110"/>
      <point x="40" y="72"/>
    </contour>
  </outline>
</glyph>
<glyph name="y" format="2">
  <advance width="583"/>
  <unicode hex="0079"/>
  <anchor x="494" y="0" name="bottom"/>
  <anchor x="294" y="502" name="top"/>
  <outline>
    <contour>
      <point x="72" y="-198" type="curve"/>
      <point x="334" y="-192" type="line"/>
      <point x="358" y="-120"/>
      <point x="386" y="-36"/>
      <point x="429" y="92" type="curve"/>
      <point x="482" y="233" type="line"/>
      <point x="532" y="359"/>
      <point x="556" y="421"/>
      <point x="588" y="502" type="curve"/>
      <point x="334" y="502" type="line"/>
      <point x="329" y="446"/>
      <point x="324" y="393"/>
      <point x="318" y="337" type="curve"/>
      <point x="301" y="230" type="line"/>
      <point x="285" y="230" type="line"/>
      <point x="270" y="338" type="line"/>
      <point x="265" y="396"/>
      <point x="260" y="450"/>
      <point x="255" y="508" type="curve"/>
      <point x="-5" y="502" type="line"/>
      <point x="22" y="431"/>
      <point x="52" y="355"/>
      <point x="80" y="282" type="curve"/>
      <point x="110" y="192" type="line"/>
      <point x="129" y="126"/>
      <point x="150" y="55"/>
      <point x="170" y="-15" type="curve"/>
      <point x="180" y="21" type="line"/>
      <point x="145" y="-50"/>
      <point x="107" y="-127"/>
    </contour>
  </outline>
</glyph>
<glyph name="bar" format="2">
  <advance width="302"/>
  <unicode hex="007C"/>
  <outline>
    <contour>
      <point x="44" y="-164" type="curve"/>
      <point x="258" y="-164" type="line"/>
      <point x="253" y="-26"/>
      <point x="247" y="127"/>
      <point x="246" y="165" type="curve"/>
      <point x="246" y="447" type="line"/>
      <point x="247" y="485"/>
      <point x="253" y="638"/>
      <point x="258" y="776" type="curve"/>
      <point x="44" y="776" type="line"/>
      <point x="49" y="638"/>
      <point x="55" y="485"/>
      <point x="56" y="447" type="curve"/>
      <point x="56" y="165" type="line"/>
      <point x="55" y="127"/>
      <point x="49" y="-26"/>
    </contour>
  </outline>
</glyph>
<glyph name="cent" format="2">
  <advance width="474"/>
  <unicode hex="00A2"/>
  <outline>
    <contour>
      <point x="194" y="-137" type="curve"/>
      <point x="368" y="-137" type="line"/>
      <point x="365" y="-55"/>
      <point x="362" y="33"/>
      <point x="359" y="99" type="curve"/>
      <point x="203" y="99" type="line"/>
      <point x="200" y="33"/>
      <point x="197" y="-55"/>
    </contour>
    <contour>
      <point x="202" y="413" type="curve"/>
      <point x="360" y="413" type="line"/>
      <point x="362" y="475"/>
      <point x="365" y="554"/>
      <point x="368" y="628" type="curve"/>
      <point x="194" y="628" type="line"/>
      <point x="197" y="554"/>
      <point x="200" y="475"/>
    </contour>
    <contour>
      <point x="293" y="-12" type="curve" smooth="yes"/>
      <point x="319" y="-12"/>
      <point x="410" y="-2"/>
      <point x="451" y="7" type="curve"/>
      <point x="443" y="190" type="line"/>
      <point x="413" y="180"/>
      <point x="364" y="166"/>
      <point x="353" y="166" type="curve"/>
      <point x="288" y="167"/>
      <point x="244" y="198"/>
      <point x="244" y="256" type="curve" smooth="yes"/>
      <point x="244" y="303"/>
      <point x="272" y="330"/>
      <point x="308" y="333" type="curve"/>
      <point x="319" y="333"/>
      <point x="383" y="316"/>
      <point x="439" y="296" type="curve"/>
      <point x="454" y="483" type="line"/>
      <point x="393" y="501"/>
      <point x="308" y="517"/>
      <point x="281" y="517" type="curve" smooth="yes"/>
      <point x="104" y="517"/>
      <point x="18" y="404"/>
      <point x="18" y="249" type="curve" smooth="yes"/>
      <point x="18" y="95"/>
      <point x="120" y="-12"/>
    </contour>
  </outline>
</glyph>
<glyph name="sterling" format="2">
  <advance width="623"/>
  <unicode hex="00A3"/>
  <outline>
    <contour>
      <point x="35" y="0" type="line"/>
      <point x="593" y="0" type="line"/>
      <point x="593" y="221" type="line"/>
      <point x="521" y="215"/>
      <point x="419" y="207"/>
      <point x="333" y="200" type="curve"/>
      <point x="206" y="200" type="line"/>
      <point x="251" y="170" type="line"/>
      <point x="323" y="269"/>
      <point x="339" y="299"/>
      <point x="339" y="330" type="curve" smooth="yes"/>
      <point x="339" y="419" type="line" smooth="yes"/>
      <point x="339" y="482"/>
      <point x="371" y="509"/>
      <point x="423" y="513" type="curve"/>
      <point x="445" y="513"/>
      <point x="490" y="502"/>
      <point x="552" y="475" type="curve"/>
      <point x="573" y="673" type="line"/>
      <point x="531" y="688"/>
      <point x="469" y="706"/>
      <point x="403" y="706" type="curve" smooth="yes"/>
      <point x="193" y="706"/>
      <point x="100" y="604"/>
      <point x="100" y="426" type="curve" smooth="yes"/>
      <point x="100" y="368"/>
      <point x="104" y="311"/>
      <point x="104" y="254" type="curve"/>
      <point x="104" y="233"/>
      <point x="92" y="205"/>
      <point x="35" y="120" type="curve"/>
    </contour>
    <contour>
      <point x="43" y="274" type="line"/>
      <point x="118" y="277"/>
      <point x="194" y="280"/>
      <point x="251" y="282" type="curve"/>
      <point x="295" y="282" type="line"/>
      <point x="352" y="280"/>
      <point x="428" y="277"/>
      <point x="503" y="274" type="curve"/>
      <point x="503" y="440" type="line"/>
      <point x="428" y="437"/>
      <point x="352" y="434"/>
      <point x="295" y="432" type="curve"/>
      <point x="251" y="432" type="line"/>
      <point x="194" y="434"/>
      <point x="118" y="437"/>
      <point x="43" y="440" type="curve"/>
    </contour>
  </outline>
</glyph>
<glyph name="yen" format="2">
  <advance width="683"/>
  <unicode hex="00A5"/>
  <outline>
    <contour>
      <point x="231" y="220" type="line"/>
      <point x="456" y="220" type="line"/>
      <point x="585" y="506" type="line"/>
      <point x="619" y="567"/>
      <point x="654" y="629"/>
      <point x="688" y="690" type="curve"/>
      <point x="397" y="690" type="line"/>
      <point x="387" y="624"/>
      <point x="383" y="598"/>
      <point x="375" y="545" type="curve"/>
      <point x="353" y="460" type="line"/>
      <point x="335" y="460" type="line"/>
      <point x="315" y="544" type="line"/>
      <point x="309" y="591"/>
      <point x="305" y="622"/>
      <point x="296" y="690" type="curve"/>
      <point x="-7" y="690" type="line"/>
      <point x="47" y="597"/>
      <point x="69" y="559"/>
      <point x="100" y="505" type="curve"/>
    </contour>
    <contour>
      <point x="209" y="0" type="curve"/>
      <point x="479" y="0" type="line"/>
      <point x="473" y="72"/>
      <point x="468" y="133"/>
      <point x="461" y="220" type="curve"/>
      <point x="461" y="411" type="line"/>
      <point x="227" y="411" type="line"/>
      <point x="227" y="220" type="line"/>
      <point x="220" y="133"/>
      <point x="215" y="72"/>
    </contour>
    <contour>
      <point x="63" y="89" type="line"/>
      <point x="138" y="92"/>
      <point x="214" y="95"/>
      <point x="271" y="97" type="curve"/>
      <point x="415" y="97" type="line"/>
      <point x="472" y="95"/>
      <point x="548" y="92"/>
      <point x="623" y="89" type="curve"/>
      <point x="623" y="230" type="line"/>
      <point x="548" y="229"/>
      <point x="472" y="228"/>
      <point x="415" y="227" type="curve"/>
      <point x="271" y="227" type="line"/>
      <point x="214" y="228"/>
      <point x="138" y="229"/>
      <point x="63" y="230" type="curve"/>
    </contour>
    <contour>
      <point x="63" y="273" type="line"/>
      <point x="138" y="274"/>
      <point x="214" y="275"/>
      <point x="271" y="276" type="curve"/>
      <point x="415" y="276" type="line"/>
      <point x="472" y="275"/>
      <point x="548" y="274"/>
      <point x="623" y="273" type="curve"/>
      <point x="623" y="414" type="line"/>
      <point x="548" y="411"/>
      <point x="472" y="408"/>
      <point x="415" y="406" type="curve"/>
      <point x="271" y="406" type="line"/>
      <point x="214" y="408"/>
      <point x="138" y="411"/>
      <point x="63" y="414" type="curve"/>
    </contour>
  </outline>
</glyph>
<glyph name="brokenbar" format="2">
  <advance width="302"/>
  <unicode hex="00A6"/>
  <outline>
    <contour>
      <point x="56" y="356" type="line"/>
      <point x="246" y="356" type="line"/>
      <point x="246" y="447" type="line"/>
      <point x="247" y="485"/>
      <point x="253" y="638"/>
      <point x="258" y="776" type="curve"/>
      <point x="44" y="776" type="line"/>
      <point x="49" y="638"/>
      <point x="55" y="485"/>
      <point x="56" y="447" type="curve"/>
    </contour>
    <contour>
      <point x="44" y="-164" type="curve"/>
      <point x="258" y="-164" type="line"/>
      <point x="253" y="-26"/>
      <point x="247" y="127"/>
      <point x="246" y="165" type="curve"/>
      <point x="246" y="256" type="line"/>
      <point x="56" y="256" type="line"/>
      <point x="56" y="165" type="line"/>
      <point x="55" y="127"/>
      <point x="49" y="-26"/>
    </contour>
  </outline>
</glyph>
<glyph name="ordfeminine" format="2">
  <advance width="414"/>
  <unicode hex="00AA"/>
  <outline>
    <contour>
      <point x="126" y="326" type="curve" smooth="yes"/>
      <point x="153" y="326"/>
      <point x="200" y="356"/>
      <point x="236" y="386" type="curve"/>
      <point x="247" y="386" type="line"/>
      <point x="259" y="336" type="line"/>
      <point x="408" y="336" type="line"/>
      <point x="398" y="395"/>
      <point x="392" y="431"/>
      <point x="384" y="478" type="curve"/>
      <point x="384" y="497" type="line" smooth="yes"/>
      <point x="384" y="522"/>
      <point x="387" y="563"/>
      <point x="387" y="589" type="curve" smooth="yes"/>
      <point x="387" y="688"/>
      <point x="325" y="729"/>
      <point x="225" y="729" type="curve" smooth="yes"/>
      <point x="204" y="729"/>
      <point x="82" y="711"/>
      <point x="43" y="702" type="curve"/>
      <point x="49" y="562" type="line"/>
      <point x="111" y="581"/>
      <point x="177" y="599"/>
      <point x="184" y="599" type="curve" smooth="yes"/>
      <point x="219" y="599"/>
      <point x="242" y="589"/>
      <point x="241" y="570" type="curve"/>
      <point x="142" y="551" type="line" smooth="yes"/>
      <point x="109" y="545"/>
      <point x="26" y="525"/>
      <point x="26" y="432" type="curve" smooth="yes"/>
      <point x="26" y="375"/>
      <point x="58" y="326"/>
    </contour>
    <contour>
      <point x="201" y="447" type="curve" smooth="yes"/>
      <point x="189" y="447"/>
      <point x="175" y="456"/>
      <point x="175" y="475" type="curve" smooth="yes"/>
      <point x="175" y="495"/>
      <point x="190" y="504"/>
      <point x="204" y="509" type="curve" smooth="yes"/>
      <point x="224" y="516"/>
      <point x="229" y="519"/>
      <point x="237" y="527" type="curve"/>
      <point x="237" y="470" type="line"/>
      <point x="223" y="457"/>
      <point x="206" y="447"/>
    </contour>
  </outline>
</glyph>
<glyph name="logicalnot" format="2">
  <advance width="590"/>
  <unicode hex="00AC"/>
  <outline>
    <contour>
      <point x="346" y="44" type="curve"/>
      <point x="558" y="44" type="line"/>
      <point x="555" y="119"/>
      <point x="552" y="195"/>
      <point x="550" y="252" type="curve"/>
      <point x="550" y="412" type="line"/>
      <point x="475" y="409"/>
      <point x="399" y="406"/>
      <point x="342" y="404" type="curve"/>
      <point x="248" y="404" type="line"/>
      <point x="191" y="406"/>
      <point x="115" y="409"/>
      <point x="40" y="412" type="curve"/>
      <point x="40" y="206" type="line"/>
      <point x="115" y="209"/>
      <point x="191" y="212"/>
      <point x="248" y="214" type="curve"/>
      <point x="342" y="214" type="line"/>
      <point x="391" y="212"/>
      <point x="456" y="209"/>
      <point x="520" y="206" type="curve"/>
      <point x="354" y="350" type="line"/>
      <point x="354" y="252" type="line"/>
      <point x="352" y="195"/>
      <point x="349" y="119"/>
    </contour>
  </outline>
</glyph>
<glyph name="registered" format="2">
  <advance width="588"/>
  <unicode hex="00AE"/>
  <outline>
    <contour>
      <point x="297" y="225" type="curve" smooth="yes"/>
      <point x="474" y="225"/>
      <point x="563" y="337"/>
      <point x="563" y="488" type="curve" smooth="yes"/>
      <point x="563" y="631"/>
      <point x="481" y="749"/>
      <point x="291" y="749" type="curve" smooth="yes"/>
      <point x="105" y="749"/>
      <point x="25" y="632"/>
      <point x="25" y="487" type="curve" smooth="yes"/>
      <point x="25" y="352"/>
      <point x="101" y="225"/>
    </contour>
    <contour>
      <point x="173" y="354" type="curve"/>
      <point x="274" y="354" type="line"/>
      <point x="271" y="387"/>
      <point x="269" y="413"/>
      <point x="266" y="448" type="curve"/>
      <point x="266" y="540" type="line"/>
      <point x="269" y="576"/>
      <point x="271" y="602"/>
      <point x="273" y="625" type="curve"/>
      <point x="170" y="639" type="line"/>
      <point x="173" y="604"/>
      <point x="175" y="579"/>
      <point x="178" y="544" type="curve"/>
      <point x="178" y="448" type="line"/>
      <point x="176" y="411"/>
      <point x="175" y="390"/>
    </contour>
    <contour>
      <point x="296" y="284" type="curve"/>
      <point x="136" y="289"/>
      <point x="91" y="386"/>
      <point x="91" y="487" type="curve" smooth="yes"/>
      <point x="91" y="600"/>
      <point x="141" y="686"/>
      <point x="292" y="691" type="curve"/>
      <point x="445" y="686"/>
      <point x="497" y="597"/>
      <point x="497" y="488" type="curve" smooth="yes"/>
      <point x="497" y="372"/>
      <point x="437" y="289"/>
    </contour>
    <contour>
      <point x="327" y="354" type="curve"/>
      <point x="441" y="354" type="line"/>
      <point x="424" y="380"/>
      <point x="406" y="408"/>
      <point x="387" y="438" type="curve"/>
      <point x="353" y="496" type="line"/>
      <point x="317" y="468" type="line"/>
      <point x="390" y="468"/>
      <point x="414" y="507"/>
      <point x="414" y="556" type="curve" smooth="yes"/>
      <point x="414" y="615"/>
      <point x="375" y="642"/>
      <point x="296" y="642" type="curve"/>
      <point x="245" y="642"/>
      <point x="205" y="639"/>
      <point x="170" y="639" type="curve"/>
      <point x="238" y="572" type="line"/>
      <point x="292" y="572" type="line" smooth="yes"/>
      <point x="303" y="572"/>
      <point x="322" y="571"/>
      <point x="322" y="544" type="curve" smooth="yes"/>
      <point x="322" y="519"/>
      <point x="307" y="511"/>
      <point x="286" y="511" type="curve" smooth="yes"/>
      <point x="248" y="511" type="line"/>
      <point x="248" y="458" type="line"/>
      <point x="317" y="458" type="line"/>
      <point x="264" y="490" type="line"/>
      <point x="299" y="424" type="line"/>
      <point x="308" y="401"/>
      <point x="316" y="381"/>
    </contour>
  </outline>
</glyph>
<glyph name="plusminus" format="2">
  <advance width="590"/>
  <unicode hex="00B1"/>
  <outline>
    <contour>
      <point x="40" y="-8" type="line"/>
      <point x="115" y="-5"/>
      <point x="191" y="-2"/>
      <point x="248" y="0" type="curve"/>
      <point x="342" y="0" type="line"/>
      <point x="399" y="-2"/>
      <point x="475" y="-5"/>
      <point x="550" y="-8" type="curve"/>
      <point x="550" y="198" type="line"/>
      <point x="475" y="195"/>
      <point x="399" y="192"/>
      <point x="342" y="190" type="curve"/>
      <point x="248" y="190" type="line"/>
      <point x="191" y="192"/>
      <point x="115" y="195"/>
      <point x="40" y="198" type="curve"/>
    </contour>
    <contour>
      <point x="40" y="366" type="line"/>
      <point x="115" y="369"/>
      <point x="191" y="372"/>
      <point x="248" y="374" type="curve"/>
      <point x="342" y="374" type="line"/>
      <point x="399" y="372"/>
      <point x="475" y="369"/>
      <point x="550" y="366" type="curve"/>
      <point x="550" y="572" type="line"/>
      <point x="475" y="569"/>
      <point x="399" y="566"/>
      <point x="342" y="564" type="curve"/>
      <point x="248" y="564" type="line"/>
      <point x="191" y="566"/>
      <point x="115" y="569"/>
      <point x="40" y="572" type="curve"/>
    </contour>
    <contour>
      <point x="189" y="224" type="curve"/>
      <point x="401" y="224" type="line"/>
      <point x="398" y="299"/>
      <point x="395" y="375"/>
      <point x="393" y="432" type="curve"/>
      <point x="393" y="506" type="line"/>
      <point x="395" y="563"/>
      <point x="398" y="639"/>
      <point x="401" y="714" type="curve"/>
      <point x="189" y="714" type="line"/>
      <point x="192" y="639"/>
      <point x="195" y="563"/>
      <point x="197" y="506" type="curve"/>
      <point x="197" y="432" type="line"/>
      <point x="195" y="375"/>
      <point x="192" y="299"/>
    </contour>
  </outline>
</glyph>
<glyph name="ordmasculine" format="2">
  <advance width="464"/>
  <unicode hex="00BA"/>
  <outline>
    <contour>
      <point x="234" y="324" type="curve" smooth="yes"/>
      <point x="371" y="324"/>
      <point x="444" y="410"/>
      <point x="444" y="527" type="curve" smooth="yes"/>
      <point x="444" y="640"/>
      <point x="377" y="729"/>
      <point x="230" y="729" type="curve" smooth="yes"/>
      <point x="87" y="729"/>
      <point x="20" y="640"/>
      <point x="20" y="527" type="curve" smooth="yes"/>
      <point x="20" y="420"/>
      <point x="83" y="324"/>
    </contour>
    <contour>
      <point x="233" y="453" type="curve"/>
      <point x="204" y="457"/>
      <point x="184" y="485"/>
      <point x="184" y="527" type="curve" smooth="yes"/>
      <point x="184" y="566"/>
      <point x="202" y="596"/>
      <point x="233" y="600" type="curve"/>
      <point x="264" y="594"/>
      <point x="279" y="567"/>
      <point x="279" y="527" type="curve" smooth="yes"/>
      <point x="279" y="485"/>
      <point x="261" y="457"/>
    </contour>
  </outline>
</glyph>
<glyph name="AE" format="2">
  <advance width="1025"/>
  <unicode hex="00C6"/>
  <anchor x="591" y="0" name="bottom"/>
  <anchor x="591" y="713" name="top"/>
  <outline>
    <contour>
      <point x="-4" y="0" type="curve"/>
      <point x="282" y="0" type="line"/>
      <point x="299" y="69"/>
      <point x="317" y="144"/>
      <point x="334" y="213" type="curve"/>
      <point x="440" y="520" type="line"/>
      <point x="472" y="520" type="line"/>
      <point x="628" y="520" type="line"/>
      <point x="655" y="713" type="line"/>
      <point x="287" y="713" type="line"/>
      <point x="264" y="642"/>
      <point x="240" y="569"/>
      <point x="213" y="487" type="curve"/>
      <point x="112" y="242" type="line"/>
      <point x="76" y="167"/>
      <point x="33" y="77"/>
    </contour>
    <contour>
      <point x="249" y="116" type="line"/>
      <point x="572" y="116" type="line"/>
      <point x="549" y="296" type="line"/>
      <point x="277" y="296" type="line"/>
    </contour>
    <contour>
      <point x="452" y="0" type="curve"/>
      <point x="730" y="0" type="line"/>
      <point x="730" y="40" type="line"/>
      <point x="724" y="114"/>
      <point x="718" y="178"/>
      <point x="711" y="269" type="curve"/>
      <point x="711" y="434" type="line"/>
      <point x="718" y="529"/>
      <point x="724" y="596"/>
      <point x="730" y="673" type="curve"/>
      <point x="730" y="713" type="line"/>
      <point x="452" y="713" type="line"/>
      <point x="458" y="636"/>
      <point x="463" y="572"/>
      <point x="471" y="474" type="curve"/>
      <point x="471" y="229" type="line"/>
      <point x="464" y="137"/>
      <point x="458" y="73"/>
    </contour>
    <contour>
      <point x="685" y="0" type="line"/>
      <point x="985" y="0" type="line"/>
      <point x="985" y="211" type="line"/>
      <point x="931" y="206"/>
      <point x="857" y="199"/>
      <point x="792" y="193" type="curve"/>
      <point x="685" y="193" type="line"/>
    </contour>
    <contour>
      <point x="654" y="271" type="line"/>
      <point x="776" y="271" type="line"/>
      <point x="845" y="267"/>
      <point x="916" y="263"/>
      <point x="967" y="260" type="curve"/>
      <point x="967" y="455" type="line"/>
      <point x="920" y="452"/>
      <point x="857" y="448"/>
      <point x="776" y="443" type="curve"/>
      <point x="654" y="443" type="line"/>
    </contour>
    <contour>
      <point x="669" y="520" type="line"/>
      <point x="776" y="520" type="line"/>
      <point x="854" y="513"/>
      <point x="922" y="507"/>
      <point x="978" y="502" type="curve"/>
      <point x="978" y="713" type="line"/>
      <point x="669" y="713" type="line"/>
    </contour>
  </outline>
</glyph>
<glyph name="multiply" format="2">
  <advance width="598"/>
  <unicode hex="00D7"/>
  <outline>
    <contour>
      <point x="428" y="35" type="curve"/>
      <point x="573" y="180" type="line"/>
      <point x="518" y="231"/>
      <point x="462" y="283"/>
      <point x="421" y="322" type="curve"/>
      <point x="312" y="431" type="line"/>
      <point x="273" y="472"/>
      <point x="221" y="528"/>
      <point x="170" y="583" type="curve"/>
      <point x="25" y="438" type="line"/>
      <point x="80" y="387"/>
      <point x="136" y="335"/>
      <point x="177" y="296" type="curve"/>
      <point x="286" y="187" type="line"/>
      <point x="325" y="146"/>
      <point x="377" y="90"/>
    </contour>
    <contour>
      <point x="170" y="35" type="line"/>
      <point x="221" y="90"/>
      <point x="273" y="146"/>
      <point x="312" y="187" type="curve"/>
      <point x="421" y="296" type="line"/>
      <point x="462" y="335"/>
      <point x="518" y="387"/>
      <point x="573" y="438" type="curve"/>
      <point x="428" y="583" type="line"/>
      <point x="377" y="528"/>
      <point x="325" y="472"/>
      <point x="286" y="431" type="curve"/>
      <point x="177" y="322" type="line"/>
      <point x="136" y="283"/>
      <point x="80" y="231"/>
      <point x="25" y="180" type="curve"/>
    </contour>
  </outline>
</glyph>
<glyph name="Oslash" format="2">
  <advance width="811"/>
  <unicode hex="00D8"/>
  <anchor x="406" y="0" name="bottom"/>
  <anchor x="406" y="357" name="center"/>
  <anchor x="531" y="0" name="ogonek"/>
  <anchor x="406" y="713" name="top"/>
  <anchor x="24" y="713" name="topleft"/>
  <anchor x="696" y="713" name="topright"/>
  <outline>
    <contour>
      <point x="409" y="-16" type="curve" smooth="yes"/>
      <point x="661" y="-16"/>
      <point x="787" y="142"/>
      <point x="787" y="356" type="curve" smooth="yes"/>
      <point x="787" y="562"/>
      <point x="668" y="729"/>
      <point x="403" y="729" type="curve" smooth="yes"/>
      <point x="141" y="729"/>
      <point x="24" y="563"/>
      <point x="24" y="355" type="curve" smooth="yes"/>
      <point x="24" y="161"/>
      <point x="134" y="-16"/>
    </contour>
    <contour>
      <point x="406" y="182" type="curve"/>
      <point x="322" y="190"/>
      <point x="280" y="260"/>
      <point x="280" y="356" type="curve" smooth="yes"/>
      <point x="280" y="455"/>
      <point x="325" y="523"/>
      <point x="406" y="531" type="curve"/>
      <point x="484" y="523"/>
      <point x="531" y="455"/>
      <point x="531" y="356" type="curve" smooth="yes"/>
      <point x="531" y="260"/>
      <point x="489" y="190"/>
    </contour>
    <contour>
      <point x="166" y="-96" type="line"/>
      <point x="227" y="-10"/>
      <point x="287" y="75"/>
      <point x="356" y="172" type="curve"/>
      <point x="555" y="433" type="line"/>
      <point x="632" y="525"/>
      <point x="692" y="598"/>
      <point x="766" y="687" type="curve"/>
      <point x="637" y="784" type="line"/>
      <point x="570" y="690"/>
      <point x="515" y="612"/>
      <point x="446" y="515" type="curve"/>
      <point x="250" y="259" type="line"/>
      <point x="175" y="168"/>
      <point x="114" y="95"/>
      <point x="42" y="8" type="curve"/>
    </contour>
  </outline>
</glyph>
<glyph name="ae" format="2">
  <advance width="795"/>
  <unicode hex="00E6"/>
  <anchor x="398" y="0" name="bottom"/>
  <anchor x="398" y="502" name="top"/>
  <outline>
    <contour>
      <point x="582" y="-16" type="curve" smooth="yes"/>
      <point x="627" y="-16"/>
      <point x="716" y="-2"/>
      <point x="768" y="12" type="curve"/>
      <point x="761" y="193" type="line"/>
      <point x="701" y="180"/>
      <point x="632" y="163"/>
      <point x="611" y="163" type="curve" smooth="yes"/>
      <point x="528" y="163"/>
      <point x="495" y="191"/>
      <point x="495" y="248" type="curve"/>
      <point x="495" y="277" type="line"/>
      <point x="495" y="342"/>
      <point x="519" y="373"/>
      <point x="544" y="377" type="curve"/>
      <point x="566" y="375"/>
      <point x="584" y="346"/>
      <point x="584" y="301" type="curve" smooth="yes"/>
      <point x="584" y="294"/>
      <point x="584" y="287"/>
      <point x="583" y="279" type="curve"/>
      <point x="770" y="218" type="line"/>
      <point x="773" y="239"/>
      <point x="775" y="259"/>
      <point x="775" y="288" type="curve" smooth="yes"/>
      <point x="775" y="449"/>
      <point x="690" y="518"/>
      <point x="542" y="518" type="curve" smooth="yes"/>
      <point x="385" y="518"/>
      <point x="307" y="408"/>
      <point x="307" y="251" type="curve" smooth="yes"/>
      <point x="307" y="94"/>
      <point x="392" y="-16"/>
    </contour>
    <contour>
      <point x="251" y="153" type="curve" smooth="yes"/>
      <point x="237" y="153"/>
      <point x="221" y="163"/>
      <point x="221" y="186" type="curve" smooth="yes"/>
      <point x="221" y="210"/>
      <point x="238" y="220"/>
      <point x="253" y="226" type="curve" smooth="yes"/>
      <point x="275" y="235"/>
      <point x="283" y="241"/>
      <point x="291" y="250" type="curve"/>
      <point x="291" y="179" type="line"/>
      <point x="277" y="166"/>
      <point x="256" y="153"/>
    </contour>
    <contour>
      <point x="190" y="-14" type="curve" smooth="yes"/>
      <point x="232" y="-14"/>
      <point x="320" y="21"/>
      <point x="428" y="106" type="curve"/>
      <point x="428" y="256" type="line"/>
      <point x="457" y="333" type="line"/>
      <point x="457" y="464"/>
      <point x="386" y="518"/>
      <point x="265" y="518" type="curve" smooth="yes"/>
      <point x="238" y="518"/>
      <point x="86" y="494"/>
      <point x="39" y="483" type="curve"/>
      <point x="47" y="290" type="line"/>
      <point x="104" y="308"/>
      <point x="213" y="339"/>
      <point x="224" y="339" type="curve" smooth="yes"/>
      <point x="272" y="339"/>
      <point x="298" y="325"/>
      <point x="297" y="308" type="curve"/>
      <point x="169" y="284" type="line" smooth="yes"/>
      <point x="117" y="274"/>
      <point x="16" y="244"/>
      <point x="16" y="126" type="curve" smooth="yes"/>
      <point x="16" y="52"/>
      <point x="57" y="-14"/>
    </contour>
    <contour>
      <point x="390" y="218" type="line"/>
      <point x="770" y="218" type="line"/>
      <point x="770" y="298" type="line"/>
      <point x="643" y="310" type="line"/>
      <point x="390" y="300" type="line"/>
    </contour>
  </outline>
</glyph>
<glyph name="oslash" format="2">
  <advance width="598"/>
  <unicode hex="00F8"/>
  <anchor x="299" y="502" name="top"/>
  <outline>
    <contour>
      <point x="302" y="-16" type="curve" smooth="yes"/>
      <point x="485" y="-16"/>
      <point x="580" y="97"/>
      <point x="580" y="251" type="curve" smooth="yes"/>
      <point x="580" y="400"/>
      <point x="493" y="518"/>
      <point x="297" y="518" type="curve" smooth="yes"/>
      <point x="106" y="518"/>
      <point x="18" y="401"/>
      <point x="18" y="251" type="curve" smooth="yes"/>
      <point x="18" y="111"/>
      <point x="100" y="-16"/>
    </contour>
    <contour>
      <point x="302" y="141" type="curve"/>
      <point x="255" y="146"/>
      <point x="224" y="190"/>
      <point x="224" y="251" type="curve" smooth="yes"/>
      <point x="224" y="315"/>
      <point x="253" y="355"/>
      <point x="302" y="361" type="curve"/>
      <point x="350" y="352"/>
      <point x="374" y="315"/>
      <point x="374" y="251" type="curve" smooth="yes"/>
      <point x="374" y="186"/>
      <point x="347" y="146"/>
    </contour>
    <contour>
      <point x="117" y="-87" type="line"/>
      <point x="164" y="-21"/>
      <point x="208" y="41"/>
      <point x="259" y="113" type="curve"/>
      <point x="408" y="309" type="line"/>
      <point x="464" y="376"/>
      <point x="510" y="431"/>
      <point x="566" y="498" type="curve"/>
      <point x="467" y="573" type="line"/>
      <point x="418" y="503"/>
      <point x="377" y="444"/>
      <point x="326" y="370" type="curve"/>
      <point x="180" y="179" type="line"/>
      <point x="124" y="111"/>
      <point x="79" y="57"/>
      <point x="25" y="-9" type="curve"/>
    </contour>
  </outline>
</glyph>
<glyph name="thorn" format="2">
  <advance width="598"/>
  <unicode hex="00FE"/>
  <outline>
    <contour>
      <point x="22" y="-198" type="curve"/>
      <point x="285" y="-192" type="line"/>
      <point x="277" y="-123"/>
      <point x="271" y="-63"/>
      <point x="262" y="8" type="curve"/>
      <point x="262" y="39" type="line"/>
      <point x="273" y="39" type="line"/>
      <point x="326" y="-2"/>
      <point x="361" y="-16"/>
      <point x="390" y="-16" type="curve" smooth="yes"/>
      <point x="521" y="-16"/>
      <point x="578" y="112"/>
      <point x="578" y="251" type="curve" smooth="yes"/>
      <point x="578" y="400"/>
      <point x="517" y="518"/>
      <point x="396" y="518" type="curve" smooth="yes"/>
      <point x="365" y="518"/>
      <point x="318" y="487"/>
      <point x="276" y="447" type="curve"/>
      <point x="262" y="447" type="line"/>
      <point x="262" y="493" type="line"/>
      <point x="271" y="589"/>
      <point x="279" y="675"/>
      <point x="286" y="752" type="curve"/>
      <point x="5" y="732" type="line"/>
      <point x="18" y="649"/>
      <point x="30" y="572"/>
      <point x="40" y="493" type="curve"/>
      <point x="40" y="21" type="line"/>
      <point x="33" y="-63"/>
      <point x="28" y="-129"/>
    </contour>
    <contour>
      <point x="299" y="169" type="curve"/>
      <point x="287" y="172"/>
      <point x="271" y="182"/>
      <point x="262" y="197" type="curve"/>
      <point x="262" y="312" type="line"/>
      <point x="271" y="320"/>
      <point x="286" y="327"/>
      <point x="299" y="330" type="curve"/>
      <point x="329" y="327"/>
      <point x="351" y="292"/>
      <point x="351" y="249" type="curve" smooth="yes"/>
      <point x="351" y="209"/>
      <point x="330" y="172"/>
    </contour>
  </outline>
</glyph>
<glyph name="hbar" format="2">
  <advance width="598"/>
  <unicode hex="0127"/>
  <outline>
    <contour>
      <point x="-15" y="540" type="line"/>
      <point x="49" y="543"/>
      <point x="108" y="547"/>
      <point x="161" y="550" type="curve"/>
      <point x="209" y="550" type="line"/>
      <point x="262" y="547"/>
      <point x="323" y="543"/>
      <point x="385" y="540" type="curve"/>
      <point x="385" y="701" type="line"/>
      <point x="322" y="698"/>
      <point x="262" y="694"/>
      <point x="209" y="691" type="curve"/>
      <point x="161" y="691" type="line"/>
      <point x="109" y="691"/>
      <point x="49" y="691"/>
      <point x="-15" y="691" type="curve"/>
    </contour>
    <contour>
      <point x="22" y="0" type="curve"/>
      <point x="280" y="0" type="line"/>
      <point x="274" y="69"/>
      <point x="268" y="129"/>
      <point x="262" y="200" type="curve"/>
      <point x="262" y="291" type="line"/>
      <point x="274" y="303"/>
      <point x="300" y="318"/>
      <point x="305" y="318" type="curve" smooth="yes"/>
      <point x="329" y="318"/>
      <point x="337" y="293"/>
      <point x="337" y="238" type="curve"/>
      <point x="337" y="200" type="line"/>
      <point x="332" y="129"/>
      <point x="327" y="69"/>
      <point x="322" y="0" type="curve"/>
      <point x="578" y="0" type="line"/>
      <point x="572" y="69"/>
      <point x="566" y="129"/>
      <point x="559" y="213" type="curve"/>
      <point x="559" y="252"/>
      <point x="564" y="297"/>
      <point x="564" y="341" type="curve" smooth="yes"/>
      <point x="564" y="461"/>
      <point x="503" y="518"/>
      <point x="407" y="518" type="curve" smooth="yes"/>
      <point x="377" y="518"/>
      <point x="327" y="489"/>
      <point x="279" y="447" type="curve"/>
      <point x="262" y="447" type="line"/>
      <point x="262" y="493" type="line"/>
      <point x="271" y="589"/>
      <point x="279" y="675"/>
      <point x="286" y="752" type="curve"/>
      <point x="40" y="732" type="line"/>
      <point x="40" y="649"/>
      <point x="40" y="572"/>
      <point x="40" y="493" type="curve"/>
      <point x="40" y="213" type="line"/>
      <point x="33" y="129"/>
      <point x="28" y="70"/>
    </contour>
  </outline>
</glyph>
<glyph name="idotless" format="2">
  <advance width="304"/>
  <unicode hex="0131"/>
  <anchor x="152" y="0" name="bottom"/>
  <anchor x="275" y="0" name="ogonek"/>
  <anchor x="152" y="502" name="top"/>
  <outline>
    <contour>
      <point x="23" y="0" type="curve"/>
      <point x="281" y="0" type="line"/>
      <point x="275" y="70"/>
      <point x="270" y="129"/>
      <point x="263" y="213" type="curve"/>
      <point x="263" y="263" type="line"/>
      <point x="272" y="373"/>
      <point x="277" y="433"/>
      <point x="283" y="502" type="curve"/>
      <point x="21" y="502" type="line"/>
      <point x="28" y="433"/>
      <point x="33" y="373"/>
      <point x="41" y="263" type="curve"/>
      <point x="41" y="213" type="line"/>
      <point x="34" y="129"/>
      <point x="29" y="70"/>
    </contour>
  </outline>
</glyph>
<glyph name="kgreenlandic" format="2">
  <advance width="614"/>
  <unicode hex="0138"/>
  <outline>
    <contour>
      <point x="330" y="0" type="curve"/>
      <point x="626" y="0" type="line"/>
      <point x="585" y="63"/>
      <point x="543" y="127"/>
      <point x="502" y="190" type="curve"/>
      <point x="426" y="321" type="line"/>
      <point x="437" y="226" type="line"/>
      <point x="492" y="317" type="line"/>
      <point x="533" y="379"/>
      <point x="574" y="440"/>
      <point x="616" y="502" type="curve"/>
      <point x="337" y="502" type="line"/>
      <point x="327" y="462"/>
      <point x="318" y="423"/>
      <point x="308" y="383" type="curve"/>
      <point x="283" y="318" type="line"/>
      <point x="243" y="318" type="line"/>
      <point x="243" y="176" type="line"/>
      <point x="283" y="176" type="line"/>
      <point x="307" y="108" type="line"/>
      <point x="316" y="72"/>
      <point x="323" y="36"/>
    </contour>
    <contour>
      <point x="19" y="0" type="curve"/>
      <point x="277" y="0" type="line"/>
      <point x="271" y="57"/>
      <point x="265" y="107"/>
      <point x="259" y="166" type="curve"/>
      <point x="259" y="303" type="line"/>
      <point x="264" y="373"/>
      <point x="269" y="439"/>
      <point x="274" y="508" type="curve"/>
      <point x="17" y="502" type="line"/>
      <point x="24" y="433"/>
      <point x="29" y="373"/>
      <point x="37" y="273" type="curve"/>
      <point x="37" y="213" type="line"/>
      <point x="30" y="129"/>
      <point x="25" y="70"/>
    </contour>
  </outline>
</glyph>
<glyph name="Lslash" format="2">
  <advance width="609"/>
  <unicode hex="0141"/>
  <outline>
    <contour>
      <point x="62" y="0" type="curve"/>
      <point x="346" y="0" type="line"/>
      <point x="346" y="40" type="line"/>
      <point x="340" y="114"/>
      <point x="334" y="178"/>
      <point x="327" y="269" type="curve"/>
      <point x="327" y="474" type="line"/>
      <point x="335" y="572"/>
      <point x="340" y="636"/>
      <point x="346" y="713" type="curve"/>
      <point x="62" y="713" type="line"/>
      <point x="68" y="636"/>
      <point x="73" y="572"/>
      <point x="81" y="474" type="curve"/>
      <point x="81" y="229" type="line"/>
      <point x="74" y="137"/>
      <point x="68" y="73"/>
    </contour>
    <contour>
      <point x="32" y="215" type="line"/>
      <point x="105" y="240"/>
      <point x="171" y="263"/>
      <point x="232" y="284" type="curve"/>
      <point x="286" y="300" type="line"/>
      <point x="350" y="316"/>
      <point x="420" y="333"/>
      <point x="492" y="351" type="curve"/>
      <point x="441" y="524" type="line"/>
      <point x="369" y="499"/>
      <point x="301" y="475"/>
      <point x="241" y="454" type="curve"/>
      <point x="186" y="438" type="line"/>
      <point x="124" y="423"/>
      <point x="54" y="406"/>
      <point x="-19" y="388" type="curve"/>
    </contour>
    <contour>
      <point x="295" y="0" type="line"/>
      <point x="585" y="0" type="line"/>
      <point x="585" y="237" type="line"/>
      <point x="522" y="229"/>
      <point x="469" y="223"/>
      <point x="379" y="212" type="curve"/>
      <point x="295" y="212" type="line"/>
    </contour>
  </outline>
</glyph>
<glyph name="lslash" format="2">
  <advance width="412"/>
  <unicode hex="0142"/>
  <outline>
    <contour>
      <point x="26" y="225" type="line"/>
      <point x="90" y="248"/>
      <point x="147" y="268"/>
      <point x="200" y="287" type="curve"/>
      <point x="248" y="301" type="line"/>
      <point x="302" y="314"/>
      <point x="366" y="329"/>
      <point x="429" y="344" type="curve"/>
      <point x="384" y="498" type="line"/>
      <point x="320" y="475"/>
      <point x="261" y="454"/>
      <point x="208" y="435" type="curve"/>
      <point x="160" y="421" type="line"/>
      <point x="104" y="408"/>
      <point x="45" y="394"/>
      <point x="-19" y="379" type="curve"/>
    </contour>
    <contour>
      <point x="82" y="0" type="curve"/>
      <point x="340" y="0" type="line"/>
      <point x="334" y="70"/>
      <point x="329" y="129"/>
      <point x="322" y="213" type="curve"/>
      <point x="322" y="493" type="line"/>
      <point x="331" y="589"/>
      <point x="339" y="675"/>
      <point x="346" y="752" type="curve"/>
      <point x="65" y="732" type="line"/>
      <point x="78" y="649"/>
      <point x="90" y="572"/>
      <point x="100" y="493" type="curve"/>
      <point x="100" y="213" type="line"/>
      <point x="93" y="129"/>
      <point x="88" y="70"/>
    </contour>
  </outline>
</glyph>
<glyph name="eng" format="2">
  <advance width="597"/>
  <unicode hex="014B"/>
  <outline>
    <contour>
      <point x="290" y="-198" type="curve"/>
      <point x="491" y="-192" type="line"/>
      <point x="521" y="-148"/>
      <point x="577" y="-48"/>
      <point x="577" y="22" type="curve" smooth="yes"/>
      <point x="577" y="80"/>
      <point x="567" y="191"/>
      <point x="567" y="263" type="curve"/>
      <point x="567" y="287"/>
      <point x="568" y="314"/>
      <point x="568" y="341" type="curve" smooth="yes"/>
      <point x="568" y="461"/>
      <point x="507" y="518"/>
      <point x="411" y="518" type="curve" smooth="yes"/>
      <point x="375" y="518"/>
      <point x="314" y="486"/>
      <point x="255" y="441" type="curve"/>
      <point x="238" y="441" type="line"/>
      <point x="228" y="512" type="line"/>
      <point x="15" y="502" type="line"/>
      <point x="26" y="419"/>
      <point x="35" y="342"/>
      <point x="44" y="263" type="curve"/>
      <point x="44" y="213" type="line"/>
      <point x="37" y="129"/>
      <point x="32" y="70"/>
      <point x="26" y="0" type="curve"/>
      <point x="284" y="0" type="line"/>
      <point x="278" y="69"/>
      <point x="272" y="129"/>
      <point x="266" y="200" type="curve"/>
      <point x="266" y="291" type="line"/>
      <point x="278" y="303"/>
      <point x="304" y="318"/>
      <point x="309" y="318" type="curve" smooth="yes"/>
      <point x="333" y="318"/>
      <point x="341" y="293"/>
      <point x="341" y="238" type="curve"/>
      <point x="341" y="213" type="line"/>
      <point x="335" y="15" type="line"/>
      <point x="324" y="-40"/>
      <point x="307" y="-123"/>
    </contour>
  </outline>
</glyph>
<glyph name="verticallinemod" format="2">
  <advance width="230"/>
  <unicode hex="02C8"/>
  <outline>
    <contour>
      <point x="200" y="502" type="curve"/>
      <point x="31" y="502" type="line"/>
      <point x="26" y="591"/>
      <point x="20" y="686"/>
      <point x="15" y="779" type="curve"/>
      <point x="215" y="779" type="line"/>
      <point x="210" y="684"/>
      <point x="205" y="591"/>
    </contour>
  </outline>
</glyph>
<glyph name="gravecomb" format="2">
  <unicode hex="0300"/>
  <anchor x="300" y="502" name="_top"/>
  <anchor x="300" y="759" name="top"/>
  <outline>
    <contour>
      <point x="277" y="553" type="curve"/>
      <point x="416" y="555" type="line"/>
      <point x="387" y="631"/>
      <point x="359" y="703"/>
      <point x="331" y="776" type="curve"/>
      <point x="88" y="771" type="line"/>
      <point x="122" y="716"/>
      <point x="210" y="622"/>
    </contour>
  </outline>
</glyph>
<glyph name="acutecomb" format="2">
  <unicode hex="0301"/>
  <anchor x="300" y="502" name="_top"/>
  <anchor x="300" y="759" name="top"/>
  <outline>
    <contour>
      <point x="184" y="553" type="curve"/>
      <point x="323" y="555" type="line"/>
      <point x="390" y="625"/>
      <point x="478" y="720"/>
      <point x="512" y="776" type="curve"/>
      <point x="269" y="771" type="line"/>
      <point x="241" y="699"/>
      <point x="213" y="628"/>
    </contour>
  </outline>
</glyph>
<glyph name="circumflexcomb" format="2">
  <unicode hex="0302"/>
  <anchor x="300" y="502" name="_top"/>
  <anchor x="300" y="755" name="top"/>
  <outline>
    <contour>
      <point x="377" y="552" type="curve"/>
      <point x="513" y="554" type="line"/>
      <point x="483" y="629"/>
      <point x="455" y="701"/>
      <point x="426" y="774" type="curve"/>
      <point x="212" y="774" type="line"/>
      <point x="243" y="717"/>
      <point x="314" y="623"/>
    </contour>
    <contour>
      <point x="87" y="554" type="curve"/>
      <point x="226" y="554" type="line"/>
      <point x="288" y="624"/>
      <point x="358" y="718"/>
      <point x="388" y="774" type="curve"/>
      <point x="174" y="774" type="line"/>
      <point x="145" y="701"/>
      <point x="117" y="629"/>
    </contour>
  </outline>
</glyph>
<glyph name="cedillacomb" format="2">
  <unicode hex="0327"/>
  <anchor x="300" y="0" name="_bottom"/>
  <outline>
    <contour>
      <point x="269" y="-228" type="curve" smooth="yes"/>
      <point x="399" y="-228"/>
      <point x="442" y="-187"/>
      <point x="442" y="-133" type="curve" smooth="yes"/>
      <point x="442" y="-84"/>
      <point x="407" y="-55"/>
      <point x="353" y="-40" type="curve"/>
      <point x="370" y="0" type="line"/>
      <point x="370" y="36" type="line"/>
      <point x="260" y="36" type="line"/>
      <point x="227" y="-42" type="line"/>
      <point x="262" y="-56"/>
      <point x="275" y="-66"/>
      <point x="275" y="-83" type="curve" smooth="yes"/>
      <point x="275" y="-101"/>
      <point x="259" y="-105"/>
      <point x="232" y="-108" type="curve"/>
      <point x="215" y="-106"/>
      <point x="200" y="-104"/>
      <point x="193" y="-103" type="curve"/>
      <point x="193" y="-220" type="line"/>
      <point x="216" y="-223"/>
      <point x="256" y="-228"/>
    </contour>
  </outline>
</glyph>
<glyph name="ogonekcomb" format="2">
  <unicode hex="0328"/>
  <anchor x="300" y="0" name="_ogonek"/>
  <outline>
    <contour>
      <point x="232" y="-228" type="curve" smooth="yes"/>
      <point x="244" y="-228"/>
      <point x="281" y="-224"/>
      <point x="308" y="-220" type="curve"/>
      <point x="308" y="-93" type="line"/>
      <point x="302" y="-94"/>
      <point x="288" y="-96"/>
      <point x="271" y="-99" type="curve"/>
      <point x="242" y="-96"/>
      <point x="226" y="-88"/>
      <point x="226" y="-69" type="curve" smooth="yes"/>
      <point x="226" y="-54"/>
      <point x="246" y="-33"/>
      <point x="305" y="0" type="curve"/>
      <point x="260" y="41" type="line"/>
      <point x="149" y="27" type="line"/>
      <point x="149" y="-15" type="line"/>
      <point x="107" y="-33"/>
      <point x="69" y="-80"/>
      <point x="69" y="-128" type="curve" smooth="yes"/>
      <point x="69" y="-184"/>
      <point x="112" y="-228"/>
    </contour>
  </outline>
</glyph>
<glyph name="macronbelowcomb" format="2">
  <unicode hex="0331"/>
  <anchor x="300" y="0" name="_bottom"/>
  <anchor x="300" y="0" name="bottom"/>
  <outline>
    <contour>
      <point x="114" y="-219" type="line"/>
      <point x="170" y="-217"/>
      <point x="236" y="-214"/>
      <point x="300" y="-211" type="curve"/>
      <point x="365" y="-214"/>
      <point x="430" y="-217"/>
      <point x="486" y="-219" type="curve"/>
      <point x="486" y="-43" type="line"/>
      <point x="431" y="-45"/>
      <point x="365" y="-48"/>
      <point x="300" y="-51" type="curve"/>
      <point x="236" y="-48"/>
      <point x="169" y="-45"/>
      <point x="114" y="-43" type="curve"/>
    </contour>
  </outline>
</glyph>
<glyph name="slashlongcomb" format="2">
  <unicode hex="0338"/>
  <anchor x="306" y="357" name="_center"/>
  <outline>
    <contour>
      <point x="66" y="-96" type="line"/>
      <point x="127" y="-10"/>
      <point x="187" y="75"/>
      <point x="256" y="172" type="curve"/>
      <point x="455" y="433" type="line"/>
      <point x="532" y="525"/>
      <point x="592" y="598"/>
      <point x="666" y="687" type="curve"/>
      <point x="537" y="784" type="line"/>
      <point x="470" y="690"/>
      <point x="415" y="612"/>
      <point x="346" y="515" type="curve"/>
      <point x="150" y="259" type="line"/>
      <point x="75" y="168"/>
      <point x="14" y="95"/>
      <point x="-58" y="8" type="curve"/>
    </contour>
  </outline>
</glyph>
<glyph name="pi" format="2">
  <advance width="648"/>
  <unicode hex="03C0"/>
  <outline>
    <contour>
      <point x="379" y="0" type="curve"/>
      <point x="627" y="0" type="line"/>
      <point x="608" y="71"/>
      <point x="590" y="139"/>
      <point x="573" y="204" type="curve"/>
      <point x="573" y="502" type="line"/>
      <point x="367" y="502" type="line"/>
      <point x="360" y="355"/>
      <point x="355" y="259"/>
      <point x="350" y="165" type="curve"/>
      <point x="350" y="152"/>
      <point x="367" y="64"/>
    </contour>
    <contour>
      <point x="58" y="0" type="curve"/>
      <point x="291" y="0" type="line"/>
      <point x="291" y="69"/>
      <point x="291" y="129"/>
      <point x="291" y="200" type="curve"/>
      <point x="291" y="263" type="line"/>
      <point x="294" y="343"/>
      <point x="298" y="425"/>
      <point x="301" y="502" type="curve"/>
      <point x="88" y="502" type="line"/>
      <point x="84" y="430"/>
      <point x="81" y="369"/>
      <point x="76" y="263" type="curve"/>
      <point x="76" y="213" type="line"/>
      <point x="69" y="129"/>
      <point x="64" y="70"/>
    </contour>
    <contour>
      <point x="12" y="321" type="line"/>
      <point x="145" y="343" type="line"/>
      <point x="458" y="343" type="line"/>
      <point x="511" y="337"/>
      <point x="571" y="329"/>
      <point x="628" y="321" type="curve"/>
      <point x="628" y="502" type="line"/>
      <point x="12" y="502" type="line"/>
    </contour>
  </outline>
</glyph>
<glyph name="emdash" format="2">
  <advance width="810"/>
  <unicode hex="2014"/>
  <outline>
    <contour>
      <point x="40" y="201" type="line"/>
      <point x="138" y="204"/>
      <point x="237" y="207"/>
      <point x="311" y="209" type="curve"/>
      <point x="499" y="209" type="line"/>
      <point x="573" y="207"/>
      <point x="672" y="204"/>
      <point x="770" y="201" type="curve"/>
      <point x="770" y="407" type="line"/>
      <point x="672" y="404"/>
      <point x="573" y="401"/>
      <point x="499" y="399" type="curve"/>
      <point x="311" y="399" type="line"/>
      <point x="237" y="401"/>
      <point x="138" y="404"/>
      <point x="40" y="407" type="curve"/>
    </contour>
  </outline>
</glyph>
<glyph name="dagger" format="2">
  <advance width="610"/>
  <unicode hex="2020"/>
  <outline>
    <contour>
      <point x="182" y="0" type="curve"/>
      <point x="428" y="0" type="line"/>
      <point x="422" y="111"/>
      <point x="417" y="203"/>
      <point x="410" y="333" type="curve"/>
      <point x="410" y="449" type="line"/>
      <point x="416" y="528"/>
      <point x="422" y="608"/>
      <point x="428" y="690" type="curve"/>
      <point x="182" y="690" type="line"/>
      <point x="188" y="607"/>
      <point x="194" y="528"/>
      <point x="200" y="449" type="curve"/>
      <point x="200" y="333" type="line"/>
      <point x="193" y="203"/>
      <point x="188" y="111"/>
    </contour>
    <contour>
      <point x="40" y="316" type="line"/>
      <point x="115" y="319"/>
      <point x="191" y="322"/>
      <point x="248" y="324" type="curve"/>
      <point x="362" y="324" type="line"/>
      <point x="419" y="322"/>
      <point x="495" y="319"/>
      <point x="570" y="316" type="curve"/>
      <point x="570" y="512" type="line"/>
      <point x="495" y="509"/>
      <point x="419" y="506"/>
      <point x="362" y="504" type="curve"/>
      <point x="248" y="504" type="line"/>
      <point x="191" y="506"/>
      <point x="115" y="509"/>
      <point x="40" y="512" type="curve"/>
    </contour>
  </outline>
</glyph>
<glyph name="minute" format="2">
  <advance width="290"/>
  <unicode hex="2032"/>
  <outline>
    <contour>
      <point x="40" y="309" type="curve"/>
      <point x="200" y="310" type="line"/>
      <point x="225" y="440"/>
      <point x="250" y="568"/>
      <point x="274" y="695" type="curve"/>
      <point x="46" y="690" type="line"/>
      <point x="44" y="564"/>
      <point x="42" y="437"/>
    </contour>
  </outline>
</glyph>
<glyph name="guilsinglleft" format="2">
  <advance width="421"/>
  <unicode hex="2039"/>
  <outline>
    <contour>
      <point x="164" y="-2" type="curve"/>
      <point x="401" y="9" type="line"/>
      <point x="348" y="88"/>
      <point x="294" y="167"/>
      <point x="241" y="246" type="curve"/>
      <point x="241" y="262" type="line"/>
      <point x="294" y="342"/>
      <point x="348" y="423"/>
      <point x="401" y="503" type="curve"/>
      <point x="164" y="516" type="line"/>
      <point x="115" y="430"/>
      <point x="65" y="343"/>
      <point x="15" y="257" type="curve"/>
      <point x="64" y="171"/>
      <point x="114" y="84"/>
    </contour>
  </outline>
</glyph>
<glyph name="fraction" format="2">
  <advance width="332"/>
  <unicode hex="2044"/>
  <outline>
    <contour>
      <point x="-138" y="0" type="curve"/>
      <point x="108" y="0" type="line"/>
      <point x="140" y="73"/>
      <point x="168" y="139"/>
      <point x="208" y="230" type="curve"/>
      <point x="333" y="477" type="line"/>
      <point x="387" y="570"/>
      <point x="426" y="638"/>
      <point x="469" y="713" type="curve"/>
      <point x="225" y="713" type="line"/>
      <point x="192" y="639"/>
      <point x="162" y="570"/>
      <point x="121" y="477" type="curve"/>
      <point x="-4" y="230" type="line"/>
      <point x="-57" y="139"/>
      <point x="-95" y="74"/>
    </contour>
  </outline>
</glyph>
<glyph name="colonsign" format="2">
  <advance width="651"/>
  <unicode hex="20A1"/>
  <outline>
    <contour>
      <point x="393" y="-15" type="curve" smooth="yes"/>
      <point x="429" y="-15"/>
      <point x="554" y="4"/>
      <point x="611" y="21" type="curve"/>
      <point x="601" y="237" type="line"/>
      <point x="543" y="211"/>
      <point x="449" y="174"/>
      <point x="427" y="174" type="curve"/>
      <point x="318" y="178"/>
      <point x="268" y="253"/>
      <point x="268" y="344" type="curve" smooth="yes"/>
      <point x="268" y="457"/>
      <point x="330" y="506"/>
      <point x="410" y="509" type="curve"/>
      <point x="425" y="509"/>
      <point x="517" y="473"/>
      <point x="597" y="431" type="curve"/>
      <point x="614" y="658" type="line"/>
      <point x="532" y="683"/>
      <point x="418" y="705"/>
      <point x="381" y="705" type="curve" smooth="yes"/>
      <point x="147" y="705"/>
      <point x="24" y="549"/>
      <point x="24" y="343" type="curve" smooth="yes"/>
      <point x="24" y="120"/>
      <point x="167" y="-15"/>
    </contour>
    <contour>
      <point x="126" y="-137" type="curve"/>
      <point x="286" y="-137" type="line"/>
      <point x="300" y="-35"/>
      <point x="315" y="73"/>
      <point x="324" y="139" type="curve"/>
      <point x="180" y="139" type="line"/>
      <point x="167" y="73"/>
      <point x="146" y="-37"/>
    </contour>
    <contour>
      <point x="315" y="-137" type="curve"/>
      <point x="475" y="-137" type="line"/>
      <point x="485" y="-56"/>
      <point x="495" y="29"/>
      <point x="503" y="93" type="curve"/>
      <point x="357" y="93" type="line"/>
      <point x="345" y="28"/>
      <point x="330" y="-56"/>
    </contour>
    <contour>
      <point x="224" y="604" type="curve"/>
      <point x="372" y="604" type="line"/>
      <point x="383" y="664"/>
      <point x="397" y="738"/>
      <point x="409" y="803" type="curve"/>
      <point x="249" y="803" type="line"/>
      <point x="241" y="735"/>
      <point x="232" y="664"/>
    </contour>
    <contour>
      <point x="405" y="560" type="curve"/>
      <point x="550" y="560" type="line"/>
      <point x="563" y="625"/>
      <point x="581" y="717"/>
      <point x="598" y="803" type="curve"/>
      <point x="438" y="803" type="line"/>
      <point x="426" y="716"/>
      <point x="414" y="626"/>
    </contour>
  </outline>
</glyph>
<glyph name="franc" format="2">
  <advance width="606"/>
  <unicode hex="20A3"/>
  <outline>
    <contour>
      <point x="78" y="0" type="curve"/>
      <point x="343" y="0" type="line"/>
      <point x="337" y="71"/>
      <point x="332" y="133"/>
      <point x="325" y="220" type="curve"/>
      <point x="325" y="423" type="line"/>
      <point x="330" y="509"/>
      <point x="334" y="573"/>
      <point x="339" y="652" type="curve"/>
      <point x="325" y="690" type="line"/>
      <point x="78" y="690" type="line"/>
      <point x="84" y="616"/>
      <point x="89" y="552"/>
      <point x="96" y="461" type="curve"/>
      <point x="96" y="220" type="line"/>
      <point x="89" y="133"/>
      <point x="84" y="71"/>
    </contour>
    <contour>
      <point x="280" y="498" type="line"/>
      <point x="382" y="498" type="line"/>
      <point x="461" y="489"/>
      <point x="520" y="482"/>
      <point x="573" y="476" type="curve"/>
      <point x="573" y="690" type="line"/>
      <point x="280" y="690" type="line"/>
    </contour>
    <contour>
      <point x="265" y="272" type="line"/>
      <point x="381" y="272" type="line"/>
      <point x="454" y="268"/>
      <point x="508" y="265"/>
      <point x="562" y="262" type="curve"/>
      <point x="562" y="436" type="line"/>
      <point x="511" y="433"/>
      <point x="458" y="430"/>
      <point x="381" y="426" type="curve"/>
      <point x="265" y="426" type="line"/>
    </contour>
    <contour>
      <point x="25" y="77" type="line"/>
      <point x="100" y="80"/>
      <point x="176" y="83"/>
      <point x="233" y="85" type="curve"/>
      <point x="277" y="85" type="line"/>
      <point x="334" y="83"/>
      <point x="410" y="80"/>
      <point x="485" y="77" type="curve"/>
      <point x="485" y="223" type="line"/>
      <point x="410" y="220"/>
      <point x="334" y="217"/>
      <point x="277" y="215" type="curve"/>
      <point x="233" y="215" type="line"/>
      <point x="176" y="217"/>
      <point x="100" y="220"/>
      <point x="25" y="223" type="curve"/>
    </contour>
  </outline>
</glyph>
<glyph name="kip" format="2">
  <advance width="783"/>
  <unicode hex="20AD"/>
  <outline>
    <contour>
      <point x="462" y="0" type="curve"/>
      <point x="776" y="0" type="line"/>
      <point x="734" y="69"/>
      <point x="665" y="182"/>
      <point x="617" y="261" type="curve"/>
      <point x="522" y="437" type="line"/>
      <point x="528" y="334" type="line"/>
      <point x="615" y="472" type="line"/>
      <point x="662" y="538"/>
      <point x="713" y="610"/>
      <point x="770" y="690" type="curve"/>
      <point x="470" y="690" type="line"/>
      <point x="447" y="626"/>
      <point x="432" y="584"/>
      <point x="414" y="534" type="curve"/>
      <point x="364" y="428" type="line"/>
      <point x="318" y="428" type="line"/>
      <point x="318" y="288" type="line"/>
      <point x="367" y="288" type="line"/>
      <point x="417" y="161" type="line"/>
      <point x="431" y="111"/>
      <point x="446" y="57"/>
    </contour>
    <contour>
      <point x="98" y="0" type="curve"/>
      <point x="368" y="0" type="line"/>
      <point x="362" y="71"/>
      <point x="357" y="133"/>
      <point x="350" y="220" type="curve"/>
      <point x="350" y="461" type="line"/>
      <point x="357" y="552"/>
      <point x="362" y="616"/>
      <point x="368" y="690" type="curve"/>
      <point x="98" y="690" type="line"/>
      <point x="104" y="616"/>
      <point x="109" y="552"/>
      <point x="116" y="461" type="curve"/>
      <point x="116" y="220" type="line"/>
      <point x="109" y="133"/>
      <point x="104" y="71"/>
    </contour>
    <contour>
      <point x="25" y="275" type="line"/>
      <point x="100" y="278"/>
      <point x="176" y="281"/>
      <point x="233" y="283" type="curve"/>
      <point x="547" y="283" type="line"/>
      <point x="604" y="281"/>
      <point x="680" y="278"/>
      <point x="755" y="275" type="curve"/>
      <point x="755" y="441" type="line"/>
      <point x="680" y="438"/>
      <point x="604" y="435"/>
      <point x="547" y="433" type="curve"/>
      <point x="233" y="433" type="line"/>
      <point x="176" y="435"/>
      <point x="100" y="438"/>
      <point x="25" y="441" type="curve"/>
    </contour>
  </outline>
</glyph>
<glyph name="cedi" format="2">
  <advance width="651"/>
  <unicode hex="20B5"/>
  <outline>
    <contour>
      <point x="393" y="-15" type="curve" smooth="yes"/>
      <point x="429" y="-15"/>
      <point x="554" y="4"/>
      <point x="611" y="21" type="curve"/>
      <point x="601" y="237" type="line"/>
      <point x="543" y="211"/>
      <point x="449" y="174"/>
      <point x="427" y="174" type="curve"/>
      <point x="318" y="178"/>
      <point x="268" y="253"/>
      <point x="268" y="344" type="curve" smooth="yes"/>
      <point x="268" y="457"/>
      <point x="330" y="506"/>
      <point x="410" y="509" type="curve"/>
      <point x="425" y="509"/>
      <point x="517" y="473"/>
      <point x="597" y="431" type="curve"/>
      <point x="614" y="658" type="line"/>
      <point x="532" y="683"/>
      <point x="418" y="705"/>
      <point x="381" y="705" type="curve" smooth="yes"/>
      <point x="147" y="705"/>
      <point x="24" y="549"/>
      <point x="24" y="343" type="curve" smooth="yes"/>
      <point x="24" y="120"/>
      <point x="167" y="-15"/>
    </contour>
    <contour>
      <point x="295" y="-137" type="curve"/>
      <point x="477" y="-137" type="line"/>
      <point x="474" y="-57"/>
      <point x="471" y="28"/>
      <point x="468" y="93" type="curve"/>
      <point x="304" y="93" type="line"/>
      <point x="301" y="28"/>
      <point x="298" y="-57"/>
    </contour>
    <contour>
      <point x="302" y="604" type="curve"/>
      <point x="470" y="604" type="line"/>
      <point x="472" y="663"/>
      <point x="475" y="735"/>
      <point x="477" y="803" type="curve"/>
      <point x="295" y="803" type="line"/>
      <point x="297" y="735"/>
      <point x="300" y="663"/>
    </contour>
  </outline>
</glyph>
<glyph name="literSign" format="2">
  <advance width="583"/>
  <unicode hex="2113"/>
  <outline>
    <contour>
      <point x="408" y="-16" type="curve" smooth="yes"/>
      <point x="430" y="-16"/>
      <point x="507" y="-4"/>
      <point x="542" y="7" type="curve"/>
      <point x="534" y="190" type="line"/>
      <point x="499" y="178"/>
      <point x="442" y="162"/>
      <point x="429" y="162" type="curve" smooth="yes"/>
      <point x="355" y="164"/>
      <point x="305" y="184"/>
      <point x="305" y="296" type="curve" smooth="yes"/>
      <point x="305" y="455" type="line" smooth="yes"/>
      <point x="305" y="532"/>
      <point x="328" y="558"/>
      <point x="352" y="565" type="curve"/>
      <point x="379" y="560"/>
      <point x="405" y="537"/>
      <point x="405" y="487" type="curve" smooth="yes"/>
      <point x="405" y="411"/>
      <point x="359" y="325"/>
      <point x="233" y="322" type="curve"/>
      <point x="214" y="322"/>
      <point x="108" y="340"/>
      <point x="24" y="355" type="curve"/>
      <point x="16" y="244" type="line"/>
      <point x="98" y="229"/>
      <point x="214" y="213"/>
      <point x="237" y="213" type="curve" smooth="yes"/>
      <point x="485" y="213"/>
      <point x="555" y="359"/>
      <point x="555" y="483" type="curve" smooth="yes"/>
      <point x="555" y="635"/>
      <point x="463" y="706"/>
      <point x="342" y="706" type="curve" smooth="yes"/>
      <point x="165" y="706"/>
      <point x="97" y="596"/>
      <point x="97" y="419" type="curve" smooth="yes"/>
      <point x="97" y="289" type="line" smooth="yes"/>
      <point x="97" y="81"/>
      <point x="213" y="-16"/>
    </contour>
  </outline>
</glyph>
<glyph name="trademark" format="2">
  <advance width="897"/>
  <unicode hex="2122"/>
  <outline>
    <contour>
      <point x="353" y="310" type="curve"/>
      <point x="522" y="310" type="line"/>
      <point x="521" y="342"/>
      <point x="520" y="373"/>
      <point x="519" y="398" type="curve"/>
      <point x="526" y="455" type="line"/>
      <point x="536" y="455" type="line"/>
      <point x="552" y="400" type="line"/>
      <point x="557" y="366"/>
      <point x="561" y="337"/>
      <point x="565" y="310" type="curve"/>
      <point x="693" y="310" type="line"/>
      <point x="694" y="342"/>
      <point x="694" y="371"/>
      <point x="695" y="395" type="curve"/>
      <point x="705" y="455" type="line"/>
      <point x="715" y="455" type="line"/>
      <point x="722" y="401" type="line"/>
      <point x="721" y="372"/>
      <point x="720" y="340"/>
      <point x="720" y="310" type="curve"/>
      <point x="894" y="310" type="line"/>
      <point x="884" y="355"/>
      <point x="874" y="400"/>
      <point x="864" y="445" type="curve"/>
      <point x="847" y="574" type="line"/>
      <point x="844" y="619"/>
      <point x="842" y="664"/>
      <point x="839" y="709" type="curve"/>
      <point x="661" y="709" type="line"/>
      <point x="658" y="685"/>
      <point x="654" y="658"/>
      <point x="651" y="633" type="curve"/>
      <point x="631" y="563" type="line"/>
      <point x="621" y="563" type="line"/>
      <point x="597" y="634" type="line"/>
      <point x="593" y="658"/>
      <point x="588" y="684"/>
      <point x="584" y="709" type="curve"/>
      <point x="404" y="709" type="line"/>
      <point x="402" y="662"/>
      <point x="400" y="620"/>
      <point x="398" y="574" type="curve"/>
      <point x="382" y="445" type="line"/>
      <point x="372" y="398"/>
      <point x="363" y="357"/>
    </contour>
    <contour>
      <point x="98" y="310" type="curve"/>
      <point x="278" y="310" type="line"/>
      <point x="274" y="350"/>
      <point x="270" y="391"/>
      <point x="266" y="437" type="curve"/>
      <point x="266" y="550" type="line"/>
      <point x="270" y="597"/>
      <point x="274" y="641"/>
      <point x="278" y="684" type="curve"/>
      <point x="278" y="709" type="line"/>
      <point x="98" y="709" type="line"/>
      <point x="98" y="684" type="line"/>
      <point x="102" y="641"/>
      <point x="106" y="597"/>
      <point x="110" y="550" type="curve"/>
      <point x="110" y="437" type="line"/>
      <point x="106" y="391"/>
      <point x="102" y="350"/>
    </contour>
    <contour>
      <point x="15" y="559" type="line"/>
      <point x="42" y="564"/>
      <point x="72" y="569"/>
      <point x="106" y="575" type="curve"/>
      <point x="136" y="575" type="line"/>
      <point x="136" y="709" type="line"/>
      <point x="15" y="709" type="line"/>
    </contour>
    <contour>
      <point x="240" y="575" type="line"/>
      <point x="270" y="575" type="line"/>
      <point x="304" y="569"/>
      <point x="334" y="564"/>
      <point x="361" y="559" type="curve"/>
      <point x="361" y="709" type="line"/>
      <point x="240" y="709" type="line"/>
    </contour>
  </outline>
</glyph>
<glyph name="increment" format="2">
  <advance width="757"/>
  <unicode hex="2206"/>
  <outline>
    <contour>
      <point x="30" y="0" type="line"/>
      <point x="298" y="0" type="line"/>
      <point x="298" y="127" type="line"/>
      <point x="304" y="173"/>
      <point x="312" y="231"/>
      <point x="318" y="276" type="curve"/>
      <point x="368" y="510" type="line"/>
      <point x="384" y="510" type="line"/>
      <point x="433" y="273" type="line"/>
      <point x="438" y="232"/>
      <point x="445" y="176"/>
      <point x="451" y="127" type="curve"/>
      <point x="451" y="0" type="line"/>
      <point x="727" y="0" type="line"/>
      <point x="727" y="154" type="line"/>
      <point x="708" y="205"/>
      <point x="686" y="262"/>
      <point x="667" y="313" type="curve"/>
      <point x="596" y="524" type="line"/>
      <point x="580" y="598"/>
      <point x="567" y="653"/>
      <point x="554" y="713" type="curve"/>
      <point x="206" y="713" type="line"/>
      <point x="192" y="655"/>
      <point x="179" y="600"/>
      <point x="161" y="525" type="curve"/>
      <point x="91" y="317" type="line"/>
      <point x="72" y="267"/>
      <point x="49" y="206"/>
      <point x="30" y="155" type="curve"/>
    </contour>
    <contour>
      <point x="181" y="0" type="line"/>
      <point x="581" y="0" type="line"/>
      <point x="581" y="200" type="line"/>
      <point x="181" y="200" type="line"/>
    </contour>
  </outline>
</glyph>
<glyph name="product" format="2">
  <advance width="841"/>
  <unicode hex="220F"/>
  <outline>
    <contour>
      <point x="464" y="-192" type="curve"/>
      <point x="747" y="-192" type="line"/>
      <point x="741" y="-99"/>
      <point x="735" y="-8"/>
      <point x="728" y="97" type="curve"/>
      <point x="728" y="374" type="line"/>
      <point x="735" y="480"/>
      <point x="741" y="571"/>
      <point x="747" y="664" type="curve"/>
      <point x="747" y="713" type="line"/>
      <point x="464" y="713" type="line"/>
      <point x="464" y="664" type="line"/>
      <point x="470" y="571"/>
      <point x="476" y="484"/>
      <point x="483" y="374" type="curve"/>
      <point x="483" y="97" type="line"/>
      <point x="476" y="-9"/>
      <point x="470" y="-100"/>
    </contour>
    <contour>
      <point x="94" y="-192" type="curve"/>
      <point x="377" y="-192" type="line"/>
      <point x="371" y="-99"/>
      <point x="365" y="-8"/>
      <point x="358" y="97" type="curve"/>
      <point x="358" y="374" type="line"/>
      <point x="365" y="480"/>
      <point x="371" y="571"/>
      <point x="377" y="664" type="curve"/>
      <point x="377" y="713" type="line"/>
      <point x="94" y="713" type="line"/>
      <point x="94" y="664" type="line"/>
      <point x="100" y="571"/>
      <point x="106" y="484"/>
      <point x="113" y="374" type="curve"/>
      <point x="113" y="97" type="line"/>
      <point x="106" y="-9"/>
      <point x="100" y="-100"/>
    </contour>
    <contour>
      <point x="30" y="486" type="line"/>
      <point x="78" y="493"/>
      <point x="129" y="501"/>
      <point x="199" y="511" type="curve"/>
      <point x="642" y="511" type="line"/>
      <point x="712" y="501"/>
      <point x="763" y="493"/>
      <point x="811" y="486" type="curve"/>
      <point x="811" y="713" type="line"/>
      <point x="30" y="713" type="line"/>
    </contour>
  </outline>
</glyph>
<glyph name="radical" format="2">
  <advance width="664"/>
  <unicode hex="221A"/>
  <outline>
    <contour>
      <point x="227" y="0" type="curve"/>
      <point x="538" y="0" type="line"/>
      <point x="547" y="75"/>
      <point x="554" y="136"/>
      <point x="565" y="228" type="curve"/>
      <point x="632" y="581" type="line"/>
      <point x="657" y="678"/>
      <point x="673" y="741"/>
      <point x="693" y="818" type="curve"/>
      <point x="461" y="818" type="line"/>
      <point x="456" y="760"/>
      <point x="453" y="721"/>
      <point x="447" y="651" type="curve"/>
      <point x="375" y="251" type="line"/>
      <point x="359" y="251" type="line"/>
      <point x="330" y="368" type="line"/>
      <point x="325" y="406"/>
      <point x="318" y="457"/>
      <point x="312" y="502" type="curve"/>
      <point x="80" y="502" type="line"/>
      <point x="146" y="301" type="line"/>
      <point x="179" y="179"/>
      <point x="202" y="92"/>
    </contour>
    <contour>
      <point x="20" y="304" type="line"/>
      <point x="95" y="307"/>
      <point x="171" y="310"/>
      <point x="228" y="312" type="curve"/>
      <point x="228" y="502" type="line"/>
      <point x="171" y="504"/>
      <point x="95" y="507"/>
      <point x="20" y="510" type="curve"/>
    </contour>
  </outline>
</glyph>
<glyph name="infinity" format="2">
  <advance width="922"/>
  <unicode hex="221E"/>
  <outline>
    <contour>
      <point x="660" y="50" type="curve" smooth="yes"/>
      <point x="825" y="50"/>
      <point x="900" y="174"/>
      <point x="900" y="310" type="curve" smooth="yes"/>
      <point x="900" y="456"/>
      <point x="825" y="570"/>
      <point x="660" y="570" type="curve" smooth="yes"/>
      <point x="538" y="570"/>
      <point x="454" y="460"/>
      <point x="380" y="357" type="curve"/>
      <point x="380" y="262" type="line"/>
      <point x="455" y="156"/>
      <point x="545" y="50"/>
    </contour>
    <contour>
      <point x="262" y="50" type="curve" smooth="yes"/>
      <point x="377" y="50"/>
      <point x="467" y="156"/>
      <point x="542" y="262" type="curve"/>
      <point x="542" y="357" type="line"/>
      <point x="468" y="460"/>
      <point x="384" y="570"/>
      <point x="262" y="570" type="curve" smooth="yes"/>
      <point x="97" y="570"/>
      <point x="22" y="456"/>
      <point x="22" y="310" type="curve" smooth="yes"/>
      <point x="22" y="174"/>
      <point x="97" y="50"/>
    </contour>
    <contour>
      <point x="278" y="222" type="curve"/>
      <point x="243" y="226"/>
      <point x="222" y="263"/>
      <point x="222" y="310" type="curve" smooth="yes"/>
      <point x="222" y="361"/>
      <point x="242" y="394"/>
      <point x="277" y="398" type="curve"/>
      <point x="299" y="396"/>
      <point x="323" y="369"/>
      <point x="354" y="310" type="curve"/>
      <point x="323" y="253"/>
      <point x="299" y="224"/>
    </contour>
    <contour>
      <point x="644" y="222" type="curve"/>
      <point x="623" y="224"/>
      <point x="599" y="253"/>
      <point x="568" y="310" type="curve"/>
      <point x="599" y="369"/>
      <point x="623" y="396"/>
      <point x="645" y="398" type="curve"/>
      <point x="680" y="394"/>
      <point x="700" y="361"/>
      <point x="700" y="310" type="curve" smooth="yes"/>
      <point x="700" y="263"/>
      <point x="679" y="226"/>
    </contour>
  </outline>
</glyph>
<glyph name="integral" format="2">
  <advance width="436"/>
  <unicode hex="222B"/>
  <outline>
    <contour>
      <point x="127" y="-207" type="curve" smooth="yes"/>
      <point x="230" y="-207"/>
      <point x="339" y="-168"/>
      <point x="339" y="28" type="curve" smooth="yes"/>
      <point x="339" y="112"/>
      <point x="324" y="356"/>
      <point x="324" y="520" type="curve" smooth="yes"/>
      <point x="324" y="559"/>
      <point x="344" y="567"/>
      <point x="366" y="570" type="curve"/>
      <point x="370" y="570"/>
      <point x="395" y="562"/>
      <point x="421" y="553" type="curve"/>
      <point x="437" y="740" type="line"/>
      <point x="394" y="745"/>
      <point x="323" y="749"/>
      <point x="309" y="749" type="curve" smooth="yes"/>
      <point x="206" y="749"/>
      <point x="97" y="710"/>
      <point x="97" y="514" type="curve" smooth="yes"/>
      <point x="97" y="430"/>
      <point x="112" y="186"/>
      <point x="112" y="22" type="curve" smooth="yes"/>
      <point x="112" y="-17"/>
      <point x="92" y="-25"/>
      <point x="70" y="-28" type="curve"/>
      <point x="66" y="-28"/>
      <point x="41" y="-20"/>
      <point x="15" y="-11" type="curve"/>
      <point x="-1" y="-198" type="line"/>
      <point x="42" y="-203"/>
      <point x="113" y="-207"/>
    </contour>
  </outline>
</glyph>
<glyph name="lessequal" format="2">
  <advance width="590"/>
  <unicode hex="2264"/>
  <outline>
    <contour>
      <point x="550" y="203" type="curve"/>
      <point x="550" y="422" type="line"/>
      <point x="503" y="434"/>
      <point x="456" y="446"/>
      <point x="409" y="458" type="curve"/>
      <point x="335" y="481" type="line"/>
      <point x="335" y="497" type="line"/>
      <point x="409" y="520" type="line"/>
      <point x="456" y="532"/>
      <point x="503" y="544"/>
      <point x="550" y="556" type="curve"/>
      <point x="550" y="775" type="line"/>
      <point x="473" y="744"/>
      <point x="404" y="716"/>
      <point x="342" y="691" type="curve"/>
      <point x="248" y="658" type="line"/>
      <point x="186" y="639"/>
      <point x="115" y="617"/>
      <point x="40" y="594" type="curve"/>
      <point x="40" y="384" type="line"/>
      <point x="115" y="361"/>
      <point x="186" y="339"/>
      <point x="248" y="320" type="curve"/>
      <point x="342" y="287" type="line"/>
      <point x="404" y="262"/>
      <point x="473" y="234"/>
    </contour>
    <contour>
      <point x="40" y="-8" type="line"/>
      <point x="115" y="-5"/>
      <point x="191" y="-2"/>
      <point x="248" y="0" type="curve"/>
      <point x="342" y="0" type="line"/>
      <point x="399" y="-2"/>
      <point x="475" y="-5"/>
      <point x="550" y="-8" type="curve"/>
      <point x="550" y="198" type="line"/>
      <point x="475" y="195"/>
      <point x="399" y="192"/>
      <point x="342" y="190" type="curve"/>
      <point x="248" y="190" type="line"/>
      <point x="191" y="192"/>
      <point x="115" y="195"/>
      <point x="40" y="198" type="curve"/>
    </contour>
  </outline>
</glyph>
<glyph name="_notequal" format="2">
  <advance width="590"/>
  <outline>
    <contour>
      <point x="289" y="-32" type="line"/>
      <point x="306" y="42"/>
      <point x="323" y="118"/>
      <point x="335" y="172" type="curve"/>
      <point x="398" y="408" type="line"/>
      <point x="415" y="463"/>
      <point x="438" y="534"/>
      <point x="460" y="606" type="curve"/>
      <point x="300" y="649" type="line"/>
      <point x="283" y="576"/>
      <point x="267" y="503"/>
      <point x="254" y="447" type="curve"/>
      <point x="190" y="211" type="line"/>
      <point x="174" y="159"/>
      <point x="151" y="83"/>
      <point x="129" y="11" type="curve"/>
    </contour>
  </outline>
</glyph>
<glyph name="_slash.Lslash" format="2">
  <advance width="609"/>
  <anchor x="297" y="357" name="_center"/>
  <outline>
    <contour>
      <point x="32" y="215" type="line"/>
      <point x="105" y="240"/>
      <point x="171" y="263"/>
      <point x="232" y="284" type="curve"/>
      <point x="286" y="300" type="line"/>
      <point x="350" y="316"/>
      <point x="420" y="333"/>
      <point x="492" y="351" type="curve"/>
      <point x="438" y="534" type="line"/>
      <point x="366" y="509"/>
      <point x="298" y="485"/>
      <point x="238" y="464" type="curve"/>
      <point x="183" y="448" type="line"/>
      <point x="121" y="433"/>
      <point x="51" y="416"/>
      <point x="-22" y="398" type="curve"/>
    </contour>
  </outline>
</glyph>
<glyph name="acutecomb.case" format="2">
  <anchor x="300" y="502" name="_top"/>
  <anchor x="300" y="749" name="top"/>
  <outline>
    <contour>
      <point x="184" y="553" type="curve"/>
      <point x="323" y="555" type="line"/>
      <point x="390" y="618"/>
      <point x="478" y="705"/>
      <point x="512" y="756" type="curve"/>
      <point x="269" y="751" type="line"/>
      <point x="241" y="686"/>
      <point x="213" y="621"/>
    </contour>
  </outline>
</glyph>
<glyph name="brevecomb.narrow" format="2">
  <anchor x="300" y="502" name="_top"/>
  <anchor x="300" y="719" name="top"/>
  <outline>
    <contour>
      <point x="300" y="538" type="curve" smooth="yes"/>
      <point x="432" y="538"/>
      <point x="493" y="605"/>
      <point x="493" y="761" type="curve"/>
      <point x="348" y="761" type="line"/>
      <point x="348" y="717"/>
      <point x="335" y="686"/>
      <point x="300" y="680" type="curve"/>
      <point x="265" y="686"/>
      <point x="253" y="717"/>
      <point x="253" y="768" type="curve"/>
      <point x="107" y="761" type="line"/>
      <point x="107" y="605"/>
      <point x="169" y="538"/>
    </contour>
  </outline>
</glyph>
<glyph name="brevecomb_acutecomb.case" format="2">
  <anchor x="300" y="502" name="_top"/>
  <outline>
    <contour>
      <point x="299" y="538" type="curve" smooth="yes"/>
      <point x="443" y="538"/>
      <point x="511" y="598"/>
      <point x="511" y="722" type="curve"/>
      <point x="369" y="722" type="line"/>
      <point x="369" y="701"/>
      <point x="349" y="673"/>
      <point x="299" y="668" type="curve"/>
      <point x="250" y="673"/>
      <point x="230" y="701"/>
      <point x="230" y="728" type="curve"/>
      <point x="88" y="722" type="line"/>
      <point x="88" y="598"/>
      <point x="157" y="538"/>
    </contour>
    <contour>
      <point x="224" y="744" type="curve"/>
      <point x="347" y="745" type="line"/>
      <point x="401" y="806"/>
      <point x="472" y="889"/>
      <point x="500" y="937" type="curve"/>
      <point x="293" y="933" type="line"/>
      <point x="270" y="871"/>
      <point x="248" y="809"/>
    </contour>
  </outline>
</glyph>
<glyph name="brevecomb_acutecomb" format="2">
  <anchor x="300" y="502" name="_top"/>
  <outline>
    <contour>
      <point x="299" y="538" type="curve" smooth="yes"/>
      <point x="443" y="538"/>
      <point x="511" y="598"/>
      <point x="511" y="742" type="curve"/>
      <point x="369" y="742" type="line"/>
      <point x="369" y="701"/>
      <point x="349" y="673"/>
      <point x="299" y="668" type="curve"/>
      <point x="250" y="673"/>
      <point x="230" y="701"/>
      <point x="230" y="748" type="curve"/>
      <point x="88" y="742" type="line"/>
      <point x="88" y="598"/>
      <point x="157" y="538"/>
    </contour>
    <contour>
      <point x="224" y="764" type="curve"/>
      <point x="347" y="765" type="line"/>
      <point x="401" y="826"/>
      <point x="472" y="909"/>
      <point x="500" y="957" type="curve"/>
      <point x="293" y="953" type="line"/>
      <point x="270" y="891"/>
      <point x="248" y="829"/>
    </contour>
  </outline>
</glyph>
<glyph name="brevecomb_hookabovecomb" format="2">
  <anchor x="300" y="502" name="_top"/>
  <outline>
    <contour>
      <point x="299" y="538" type="curve" smooth="yes"/>
      <point x="443" y="538"/>
      <point x="511" y="598"/>
      <point x="511" y="742" type="curve"/>
      <point x="369" y="742" type="line"/>
      <point x="369" y="701"/>
      <point x="349" y="673"/>
      <point x="299" y="668" type="curve"/>
      <point x="250" y="673"/>
      <point x="230" y="701"/>
      <point x="230" y="748" type="curve"/>
      <point x="88" y="742" type="line"/>
      <point x="88" y="598"/>
      <point x="157" y="538"/>
    </contour>
    <contour>
      <point x="231" y="760" type="line"/>
      <point x="335" y="760" type="line"/>
      <point x="335" y="770" type="line"/>
      <point x="410" y="793"/>
      <point x="456" y="829"/>
      <point x="456" y="890" type="curve" smooth="yes"/>
      <point x="456" y="965"/>
      <point x="384" y="985"/>
      <point x="311" y="985" type="curve" smooth="yes"/>
      <point x="295" y="985"/>
      <point x="201" y="971"/>
      <point x="167" y="966" type="curve"/>
      <point x="175" y="852" type="line"/>
      <point x="214" y="864"/>
      <point x="268" y="881"/>
      <point x="277" y="881" type="curve"/>
      <point x="297" y="879"/>
      <point x="309" y="874"/>
      <point x="309" y="861" type="curve" smooth="yes"/>
      <point x="309" y="840"/>
      <point x="271" y="823"/>
      <point x="231" y="807" type="curve"/>
    </contour>
  </outline>
</glyph>
<glyph name="cent.BRACKET.140" format="2">
  <advance width="474"/>
  <outline>
    <contour>
      <point x="204" y="-137" type="curve"/>
      <point x="378" y="-137" type="line"/>
      <point x="373" y="1"/>
      <point x="367" y="154"/>
      <point x="366" y="192" type="curve"/>
      <point x="366" y="299" type="line"/>
      <point x="367" y="337"/>
      <point x="373" y="490"/>
      <point x="378" y="628" type="curve"/>
      <point x="204" y="628" type="line"/>
      <point x="209" y="490"/>
      <point x="215" y="337"/>
      <point x="216" y="299" type="curve"/>
      <point x="216" y="192" type="line"/>
      <point x="215" y="154"/>
      <point x="209" y="1"/>
    </contour>
    <contour>
      <point x="293" y="-12" type="curve" smooth="yes"/>
      <point x="319" y="-12"/>
      <point x="410" y="-2"/>
      <point x="451" y="7" type="curve"/>
      <point x="443" y="190" type="line"/>
      <point x="413" y="180"/>
      <point x="364" y="166"/>
      <point x="353" y="166" type="curve"/>
      <point x="288" y="167"/>
      <point x="244" y="198"/>
      <point x="244" y="256" type="curve" smooth="yes"/>
      <point x="244" y="303"/>
      <point x="272" y="330"/>
      <point x="308" y="333" type="curve"/>
      <point x="319" y="333"/>
      <point x="383" y="316"/>
      <point x="439" y="296" type="curve"/>
      <point x="454" y="483" type="line"/>
      <point x="393" y="501"/>
      <point x="308" y="517"/>
      <point x="281" y="517" type="curve" smooth="yes"/>
      <point x="104" y="517"/>
      <point x="18" y="404"/>
      <point x="18" y="249" type="curve" smooth="yes"/>
      <point x="18" y="95"/>
      <point x="120" y="-12"/>
    </contour>
  </outline>
</glyph>
<glyph name="circumflexcomb.narrow" format="2">
  <anchor x="300" y="502" name="_top"/>
  <anchor x="300" y="755" name="top"/>
  <outline>
    <contour>
      <point x="368" y="552" type="curve"/>
      <point x="497" y="554" type="line"/>
      <point x="468" y="629"/>
      <point x="441" y="699"/>
      <point x="412" y="774" type="curve"/>
      <point x="222" y="774" type="line"/>
      <point x="250" y="717"/>
      <point x="312" y="623"/>
    </contour>
    <contour>
      <point x="103" y="554" type="curve"/>
      <point x="235" y="554" type="line"/>
      <point x="289" y="624"/>
      <point x="351" y="718"/>
      <point x="378" y="774" type="curve"/>
      <point x="188" y="774" type="line"/>
      <point x="159" y="699"/>
      <point x="133" y="631"/>
    </contour>
  </outline>
</glyph>
<glyph name="circumflexcomb_acutecomb.case" format="2">
  <anchor x="300" y="502" name="_top"/>
  <outline>
    <contour>
      <point x="445" y="704" type="curve"/>
      <point x="568" y="705" type="line"/>
      <point x="622" y="766"/>
      <point x="693" y="849"/>
      <point x="721" y="897" type="curve"/>
      <point x="514" y="893" type="line"/>
      <point x="491" y="831"/>
      <point x="469" y="769"/>
    </contour>
    <contour>
      <point x="102" y="554" type="curve"/>
      <point x="231" y="554" type="line"/>
      <point x="289" y="615"/>
      <point x="354" y="696"/>
      <point x="382" y="745" type="curve"/>
      <point x="183" y="745" type="line"/>
      <point x="156" y="681"/>
      <point x="130" y="619"/>
    </contour>
    <contour>
      <point x="372" y="552" type="curve"/>
      <point x="498" y="554" type="line"/>
      <point x="470" y="620"/>
      <point x="444" y="681"/>
      <point x="417" y="745" type="curve"/>
      <point x="218" y="745" type="line"/>
      <point x="247" y="695"/>
      <point x="313" y="614"/>
    </contour>
  </outline>
</glyph>
<glyph name="circumflexcomb_acutecomb" format="2">
  <anchor x="300" y="502" name="_top"/>
  <outline>
    <contour>
      <point x="445" y="714" type="curve"/>
      <point x="568" y="715" type="line"/>
      <point x="622" y="776"/>
      <point x="693" y="859"/>
      <point x="721" y="907" type="curve"/>
      <point x="514" y="903" type="line"/>
      <point x="491" y="841"/>
      <point x="469" y="779"/>
    </contour>
    <contour>
      <point x="102" y="554" type="curve"/>
      <point x="231" y="554" type="line"/>
      <point x="289" y="621"/>
      <point x="354" y="711"/>
      <point x="382" y="764" type="curve"/>
      <point x="183" y="764" type="line"/>
      <point x="156" y="694"/>
      <point x="130" y="626"/>
    </contour>
    <contour>
      <point x="372" y="552" type="curve"/>
      <point x="498" y="554" type="line"/>
      <point x="468" y="627"/>
      <point x="441" y="694"/>
      <point x="412" y="764" type="curve"/>
      <point x="218" y="764" type="line"/>
      <point x="247" y="710"/>
      <point x="313" y="620"/>
    </contour>
  </outline>
</glyph>
<glyph name="circumflexcomb_tildecomb" format="2">
  <anchor x="300" y="502" name="_top"/>
  <outline>
    <contour>
      <point x="385" y="770" type="curve" smooth="yes"/>
      <point x="451" y="770"/>
      <point x="495" y="832"/>
      <point x="495" y="942" type="curve"/>
      <point x="397" y="942" type="line"/>
      <point x="387" y="925"/>
      <point x="373" y="904"/>
      <point x="360" y="902" type="curve"/>
      <point x="339" y="905"/>
      <point x="289" y="961"/>
      <point x="222" y="961" type="curve" smooth="yes"/>
      <point x="152" y="961"/>
      <point x="105" y="899"/>
      <point x="105" y="789" type="curve"/>
      <point x="202" y="789" type="line"/>
      <point x="212" y="804"/>
      <point x="229" y="827"/>
      <point x="243" y="829" type="curve"/>
      <point x="269" y="826"/>
      <point x="312" y="770"/>
    </contour>
    <contour>
      <point x="102" y="554" type="curve"/>
      <point x="231" y="554" type="line"/>
      <point x="289" y="614"/>
      <point x="354" y="696"/>
      <point x="382" y="744" type="curve"/>
      <point x="183" y="744" type="line"/>
      <point x="156" y="681"/>
      <point x="130" y="619"/>
    </contour>
    <contour>
      <point x="372" y="552" type="curve"/>
      <point x="498" y="554" type="line"/>
      <point x="470" y="620"/>
      <point x="444" y="681"/>
      <point x="417" y="744" type="curve"/>
      <point x="218" y="744" type="line"/>
      <point x="247" y="695"/>
      <point x="313" y="614"/>
    </contour>
  </outline>
</glyph>
<glyph name="dieresiscomb.case" format="2">
  <anchor x="299" y="502" name="_top"/>
  <anchor x="298" y="710" name="top"/>
  <outline>
    <contour>
      <point x="421" y="538" type="curve" smooth="yes"/>
      <point x="488" y="538"/>
      <point x="527" y="569"/>
      <point x="527" y="646" type="curve" smooth="yes"/>
      <point x="527" y="709"/>
      <point x="488" y="743"/>
      <point x="422" y="743" type="curve" smooth="yes"/>
      <point x="355" y="743"/>
      <point x="316" y="712"/>
      <point x="316" y="646" type="curve" smooth="yes"/>
      <point x="316" y="569"/>
      <point x="355" y="538"/>
    </contour>
    <contour>
      <point x="177" y="538" type="curve" smooth="yes"/>
      <point x="244" y="538"/>
      <point x="283" y="569"/>
      <point x="283" y="646" type="curve" smooth="yes"/>
      <point x="283" y="709"/>
      <point x="244" y="743"/>
      <point x="178" y="743" type="curve" smooth="yes"/>
      <point x="111" y="743"/>
      <point x="72" y="712"/>
      <point x="72" y="646" type="curve" smooth="yes"/>
      <point x="72" y="569"/>
      <point x="111" y="538"/>
    </contour>
  </outline>
</glyph>
<glyph name="dollar.BRACKET.140" format="2">
  <advance width="588"/>
  <outline>
    <contour>
      <point x="281" y="-15" type="curve" smooth="yes"/>
      <point x="482" y="-15"/>
      <point x="569" y="65"/>
      <point x="569" y="207" type="curve" smooth="yes"/>
      <point x="569" y="331"/>
      <point x="516" y="381"/>
      <point x="355" y="426" type="curve" smooth="yes"/>
      <point x="270" y="450"/>
      <point x="232" y="453"/>
      <point x="232" y="479" type="curve" smooth="yes"/>
      <point x="232" y="503"/>
      <point x="275" y="515"/>
      <point x="322" y="515" type="curve"/>
      <point x="339" y="515"/>
      <point x="431" y="490"/>
      <point x="517" y="460" type="curve"/>
      <point x="532" y="662" type="line"/>
      <point x="456" y="677"/>
      <point x="341" y="700"/>
      <point x="282" y="700" type="curve" smooth="yes"/>
      <point x="104" y="700"/>
      <point x="25" y="612"/>
      <point x="25" y="478" type="curve" smooth="yes"/>
      <point x="25" y="345"/>
      <point x="94" y="295"/>
      <point x="212" y="263" type="curve" smooth="yes"/>
      <point x="305" y="238"/>
      <point x="363" y="233"/>
      <point x="363" y="203" type="curve" smooth="yes"/>
      <point x="363" y="180"/>
      <point x="332" y="166"/>
      <point x="271" y="166" type="curve"/>
      <point x="254" y="166"/>
      <point x="151" y="192"/>
      <point x="53" y="223" type="curve"/>
      <point x="37" y="17" type="line"/>
      <point x="124" y="1"/>
      <point x="234" y="-15"/>
    </contour>
    <contour>
      <point x="210" y="-137" type="curve"/>
      <point x="394" y="-137" type="line"/>
      <point x="389" y="1"/>
      <point x="383" y="154"/>
      <point x="382" y="192" type="curve"/>
      <point x="382" y="474" type="line"/>
      <point x="383" y="512"/>
      <point x="389" y="665"/>
      <point x="394" y="803" type="curve"/>
      <point x="210" y="803" type="line"/>
      <point x="215" y="665"/>
      <point x="221" y="512"/>
      <point x="222" y="474" type="curve"/>
      <point x="222" y="192" type="line"/>
      <point x="221" y="154"/>
      <point x="215" y="1"/>
    </contour>
  </outline>
</glyph>
<glyph name="eight.dnom" format="2">
  <advance width="482"/>
  <outline>
    <contour>
      <point x="241" y="-15" type="curve" smooth="yes"/>
      <point x="394" y="-15"/>
      <point x="459" y="44"/>
      <point x="459" y="129" type="curve" smooth="yes"/>
      <point x="459" y="199"/>
      <point x="411" y="233"/>
      <point x="360" y="243" type="curve"/>
      <point x="360" y="255" type="line"/>
      <point x="411" y="264"/>
      <point x="448" y="296"/>
      <point x="448" y="350" type="curve" smooth="yes"/>
      <point x="448" y="426"/>
      <point x="375" y="477"/>
      <point x="241" y="477" type="curve" smooth="yes"/>
      <point x="107" y="477"/>
      <point x="34" y="426"/>
      <point x="34" y="350" type="curve" smooth="yes"/>
      <point x="34" y="296"/>
      <point x="71" y="264"/>
      <point x="122" y="255" type="curve"/>
      <point x="122" y="243" type="line"/>
      <point x="68" y="232"/>
      <point x="23" y="197"/>
      <point x="23" y="129" type="curve" smooth="yes"/>
      <point x="23" y="44"/>
      <point x="88" y="-15"/>
    </contour>
    <contour>
      <point x="241" y="118" type="curve"/>
      <point x="212" y="122"/>
      <point x="194" y="133"/>
      <point x="194" y="153" type="curve" smooth="yes"/>
      <point x="194" y="173"/>
      <point x="214" y="184"/>
      <point x="241" y="188" type="curve"/>
      <point x="268" y="184"/>
      <point x="288" y="173"/>
      <point x="288" y="153" type="curve" smooth="yes"/>
      <point x="288" y="133"/>
      <point x="270" y="122"/>
    </contour>
    <contour>
      <point x="241" y="283" type="curve"/>
      <point x="216" y="287"/>
      <point x="202" y="299"/>
      <point x="202" y="316" type="curve" smooth="yes"/>
      <point x="202" y="339"/>
      <point x="220" y="348"/>
      <point x="241" y="351" type="curve"/>
      <point x="263" y="348"/>
      <point x="282" y="339"/>
      <point x="282" y="316" type="curve" smooth="yes"/>
      <point x="282" y="299"/>
      <point x="267" y="287"/>
    </contour>
  </outline>
</glyph>
<glyph name="f.calt" format="2">
  <advance width="425"/>
  <outline>
    <contour>
      <point x="64" y="0" type="curve"/>
      <point x="322" y="0" type="line"/>
      <point x="316" y="70"/>
      <point x="311" y="129"/>
      <point x="304" y="213" type="curve"/>
      <point x="304" y="470" type="line"/>
      <point x="308" y="502" type="line"/>
      <point x="297" y="512"/>
      <point x="278" y="530"/>
      <point x="278" y="535" type="curve" smooth="yes"/>
      <point x="278" y="558"/>
      <point x="304" y="570"/>
      <point x="332" y="570" type="curve" smooth="yes"/>
      <point x="338" y="570"/>
      <point x="377" y="562"/>
      <point x="416" y="553" type="curve"/>
      <point x="416" y="740" type="line"/>
      <point x="378" y="745"/>
      <point x="316" y="749"/>
      <point x="304" y="749" type="curve" smooth="yes"/>
      <point x="191" y="749"/>
      <point x="70" y="710"/>
      <point x="70" y="534" type="curve" smooth="yes"/>
      <point x="70" y="471"/>
      <point x="82" y="339"/>
      <point x="82" y="263" type="curve"/>
      <point x="82" y="213" type="line"/>
      <point x="75" y="129"/>
      <point x="70" y="70"/>
    </contour>
    <contour>
      <point x="12" y="321" type="line"/>
      <point x="145" y="343" type="line"/>
      <point x="247" y="343" type="line"/>
      <point x="300" y="336"/>
      <point x="350" y="329"/>
      <point x="407" y="321" type="curve"/>
      <point x="407" y="502" type="line"/>
      <point x="12" y="502" type="line"/>
    </contour>
  </outline>
</glyph>
<glyph name="four.dnom" format="2">
  <advance width="466"/>
  <outline>
    <contour>
      <point x="210" y="0" type="curve"/>
      <point x="408" y="0" type="line"/>
      <point x="404" y="48"/>
      <point x="401" y="81"/>
      <point x="396" y="139" type="curve"/>
      <point x="396" y="298" type="line"/>
      <point x="400" y="350"/>
      <point x="404" y="404"/>
      <point x="408" y="462" type="curve"/>
      <point x="218" y="462" type="line"/>
      <point x="202" y="437"/>
      <point x="184" y="409"/>
      <point x="167" y="383" type="curve"/>
      <point x="111" y="310" type="line"/>
      <point x="81" y="276"/>
      <point x="37" y="226"/>
      <point x="15" y="201" type="curve"/>
      <point x="15" y="78" type="line"/>
      <point x="283" y="78" type="line"/>
      <point x="332" y="75"/>
      <point x="400" y="70"/>
      <point x="446" y="67" type="curve"/>
      <point x="446" y="235" type="line"/>
      <point x="400" y="232"/>
      <point x="331" y="227"/>
      <point x="283" y="224" type="curve"/>
      <point x="270" y="204" type="line"/>
      <point x="145" y="204" type="line"/>
      <point x="161" y="196" type="line"/>
      <point x="174" y="217"/>
      <point x="191" y="245"/>
      <point x="208" y="272" type="curve"/>
      <point x="283" y="367" type="line"/>
      <point x="308" y="392"/>
      <point x="331" y="414"/>
      <point x="352" y="435" type="curve"/>
      <point x="235" y="394" type="line"/>
      <point x="238" y="349"/>
      <point x="240" y="306"/>
      <point x="243" y="262" type="curve"/>
      <point x="243" y="159" type="line"/>
      <point x="222" y="139" type="line"/>
      <point x="217" y="81"/>
      <point x="214" y="47"/>
    </contour>
  </outline>
</glyph>
<glyph name="gravecomb.case" format="2">
  <anchor x="300" y="502" name="_top"/>
  <anchor x="300" y="749" name="top"/>
  <outline>
    <contour>
      <point x="277" y="553" type="curve"/>
      <point x="416" y="555" type="line"/>
      <point x="387" y="624"/>
      <point x="359" y="689"/>
      <point x="331" y="756" type="curve"/>
      <point x="88" y="751" type="line"/>
      <point x="122" y="701"/>
      <point x="210" y="616"/>
    </contour>
  </outline>
</glyph>
<glyph name="hungarumlautcomb.case" format="2">
  <anchor x="300" y="502" name="_top"/>
  <anchor x="300" y="757" name="top"/>
  <outline>
    <contour>
      <point x="324" y="553" type="curve"/>
      <point x="454" y="555" type="line"/>
      <point x="521" y="618"/>
      <point x="601" y="705"/>
      <point x="635" y="756" type="curve"/>
      <point x="409" y="751" type="line"/>
      <point x="381" y="686"/>
      <point x="353" y="621"/>
    </contour>
    <contour>
      <point x="95" y="553" type="curve"/>
      <point x="217" y="555" type="line"/>
      <point x="275" y="618"/>
      <point x="342" y="705"/>
      <point x="369" y="756" type="curve"/>
      <point x="154" y="751" type="line"/>
      <point x="135" y="686"/>
      <point x="115" y="621"/>
    </contour>
  </outline>
</glyph>
<glyph name="macroncomb.narrow" format="2">
  <anchor x="300" y="502" name="_top"/>
  <anchor x="300" y="717" name="top"/>
  <outline>
    <contour>
      <point x="144" y="555" type="line"/>
      <point x="188" y="557"/>
      <point x="246" y="560"/>
      <point x="300" y="563" type="curve"/>
      <point x="355" y="560"/>
      <point x="411" y="557"/>
      <point x="456" y="555" type="curve"/>
      <point x="456" y="731" type="line"/>
      <point x="411" y="729"/>
      <point x="355" y="726"/>
      <point x="300" y="723" type="curve"/>
      <point x="246" y="726"/>
      <point x="188" y="729"/>
      <point x="144" y="731" type="curve"/>
    </contour>
  </outline>
</glyph>
<glyph name="ogonekcomb.a" format="2">
  <anchor x="300" y="0" name="_ogonek"/>
  <outline>
    <contour>
      <point x="257" y="-228" type="curve" smooth="yes"/>
      <point x="269" y="-228"/>
      <point x="306" y="-224"/>
      <point x="333" y="-220" type="curve"/>
      <point x="333" y="-93" type="line"/>
      <point x="327" y="-94"/>
      <point x="313" y="-96"/>
      <point x="296" y="-99" type="curve"/>
      <point x="267" y="-96"/>
      <point x="251" y="-88"/>
      <point x="251" y="-69" type="curve" smooth="yes"/>
      <point x="251" y="-54"/>
      <point x="271" y="-33"/>
      <point x="330" y="0" type="curve"/>
      <point x="285" y="41" type="line"/>
      <point x="174" y="27" type="line"/>
      <point x="174" y="-15" type="line"/>
      <point x="132" y="-33"/>
      <point x="94" y="-80"/>
      <point x="94" y="-128" type="curve" smooth="yes"/>
      <point x="94" y="-184"/>
      <point x="137" y="-228"/>
    </contour>
  </outline>
</glyph>
<glyph name="seven.dnom" format="2">
  <advance width="432"/>
  <outline>
    <contour>
      <point x="37" y="0" type="curve"/>
      <point x="255" y="0" type="line"/>
      <point x="272" y="47"/>
      <point x="288" y="93"/>
      <point x="305" y="140" type="curve"/>
      <point x="343" y="221" type="line"/>
      <point x="365" y="261"/>
      <point x="387" y="303"/>
      <point x="409" y="343" type="curve"/>
      <point x="409" y="470" type="line"/>
      <point x="19" y="470" type="line"/>
      <point x="19" y="308" type="line"/>
      <point x="75" y="314"/>
      <point x="124" y="319"/>
      <point x="174" y="324" type="curve"/>
      <point x="261" y="324" type="line"/>
      <point x="209" y="360" type="line"/>
      <point x="199" y="331"/>
      <point x="189" y="302"/>
      <point x="179" y="273" type="curve"/>
      <point x="121" y="154" type="line"/>
      <point x="93" y="103"/>
      <point x="66" y="53"/>
    </contour>
  </outline>
</glyph>
<glyph name="three.dnom" format="2">
  <advance width="444"/>
  <outline>
    <contour>
      <point x="211" y="-15" type="curve" smooth="yes"/>
      <point x="356" y="-15"/>
      <point x="421" y="43"/>
      <point x="421" y="131" type="curve" smooth="yes"/>
      <point x="421" y="202"/>
      <point x="373" y="236"/>
      <point x="321" y="245" type="curve"/>
      <point x="321" y="256" type="line"/>
      <point x="372" y="265"/>
      <point x="410" y="294"/>
      <point x="410" y="348" type="curve" smooth="yes"/>
      <point x="410" y="426"/>
      <point x="343" y="477"/>
      <point x="214" y="477" type="curve" smooth="yes"/>
      <point x="185" y="477"/>
      <point x="79" y="458"/>
      <point x="31" y="448" type="curve"/>
      <point x="44" y="296" type="line"/>
      <point x="89" y="312"/>
      <point x="171" y="339"/>
      <point x="180" y="339" type="curve"/>
      <point x="212" y="337"/>
      <point x="231" y="329"/>
      <point x="231" y="310" type="curve" smooth="yes"/>
      <point x="231" y="289"/>
      <point x="213" y="283"/>
      <point x="177" y="281" type="curve"/>
      <point x="156" y="283"/>
      <point x="134" y="285"/>
      <point x="113" y="287" type="curve"/>
      <point x="113" y="175" type="line"/>
      <point x="137" y="177"/>
      <point x="163" y="179"/>
      <point x="188" y="181" type="curve"/>
      <point x="225" y="179"/>
      <point x="241" y="172"/>
      <point x="241" y="154" type="curve" smooth="yes"/>
      <point x="241" y="134"/>
      <point x="227" y="125"/>
      <point x="189" y="123" type="curve"/>
      <point x="179" y="123"/>
      <point x="86" y="150"/>
      <point x="35" y="165" type="curve"/>
      <point x="24" y="11" type="line"/>
      <point x="73" y="3"/>
      <point x="182" y="-15"/>
    </contour>
  </outline>
</glyph>
